<?xml version="1.0" standalone="no"?>
<svg viewBox="0 0 200 200" xmlns="http://www.w3.org/2000/svg">
  <path fill="#FE4056" d="M32.2,-48.4C46.8,-40.7,67.2,-40.4,78.2,-31.3C89.1,-22.3,90.6,-4.5,86.3,11.1C81.9,26.6,71.8,40,58.4,44.3C44.9,48.6,28.2,43.8,15.4,43.2C2.7,42.7,-6,46.4,-20.4,50.7C-34.8,55.1,-54.9,60,-63.3,53.2C-71.8,46.5,-68.5,27.9,-70.4,10.5C-72.2,-6.8,-79.2,-23.1,-75.7,-36.2C-72.3,-49.3,-58.4,-59.4,-44.1,-67.1C-29.7,-74.9,-14.9,-80.5,-3,-75.7C8.8,-71,17.6,-56,32.2,-48.4Z" transform="translate(100 100)" />
</svg>
