<svg xmlns="http://www.w3.org/2000/svg" xmlns:xlink="http://www.w3.org/1999/xlink" viewBox="0 0 376.82 630.19"><style>.B{isolation:isolate}</style><defs><linearGradient id="A" x1="148.37" y1="181.65" x2="175.72" y2="134.27" xlink:href="#f"><stop offset="0" stop-color="#c707ec"/><stop offset=".11" stop-color="#7875d2"/><stop offset=".2" stop-color="#6d84ce"/><stop offset=".38" stop-color="#5b9bc8"/><stop offset=".49" stop-color="#54a4c6"/><stop offset=".73" stop-color="#55a2c6"/><stop offset=".82" stop-color="#5a9bc8"/><stop offset=".88" stop-color="#6390cb"/><stop offset=".94" stop-color="#6f7fcf"/><stop offset=".98" stop-color="#7f69d5"/><stop offset=".99" stop-color="#8660d7"/><stop offset="1" stop-color="#c707ec"/></linearGradient><linearGradient id="B" x1="148.42" y1="181.56" x2="175.67" y2="134.35" xlink:href="#A"/><linearGradient id="C" x1="179.96" y1="178.09" x2="203.77" y2="136.85" xlink:href="#f"><stop offset="0" stop-color="#c707ec"/><stop offset="0" stop-color="#c509eb"/><stop offset=".1" stop-color="#a338e0"/><stop offset=".19" stop-color="#875fd7"/><stop offset=".28" stop-color="#707dcf"/><stop offset=".37" stop-color="#6193ca"/><stop offset=".46" stop-color="#57a0c7"/><stop offset=".54" stop-color="#54a4c6"/><stop offset=".62" stop-color="#56a1c7"/><stop offset=".68" stop-color="#5d98c9"/><stop offset=".73" stop-color="#6888cd"/><stop offset=".78" stop-color="#7872d2"/><stop offset=".82" stop-color="#8d56d9"/><stop offset=".86" stop-color="#a733e1"/><stop offset=".9" stop-color="#c50aeb"/><stop offset=".91" stop-color="#c707ec"/></linearGradient><linearGradient id="D" x1="180.01" y1="178" x2="203.78" y2="136.83" xlink:href="#C"/><linearGradient id="E" x1="160.99" y1="252.44" x2="228.81" y2="134.96" xlink:href="#f"><stop offset="0" stop-color="#c707ec"/><stop offset="0" stop-color="#c50aeb"/><stop offset=".01" stop-color="#aa2ee3"/><stop offset=".01" stop-color="#934ddb"/><stop offset=".02" stop-color="#7f69d4"/><stop offset=".03" stop-color="#6f7fcf"/><stop offset=".04" stop-color="#6390cb"/><stop offset=".05" stop-color="#5a9bc8"/><stop offset=".06" stop-color="#55a2c6"/><stop offset=".11" stop-color="#54a4c6"/><stop offset=".19" stop-color="#56a1c7"/><stop offset=".24" stop-color="#5c99c9"/><stop offset=".29" stop-color="#678bcc"/><stop offset=".33" stop-color="#7676d1"/><stop offset=".36" stop-color="#895cd8"/><stop offset=".39" stop-color="#a13bdf"/><stop offset=".42" stop-color="#bd15e9"/><stop offset=".43" stop-color="#c707ec"/><stop offset=".59" stop-color="#9d40de"/><stop offset=".76" stop-color="#7676d1"/><stop offset=".88" stop-color="#5d97c9"/><stop offset=".95" stop-color="#54a4c6"/><stop offset=".96" stop-color="#56a1c7"/><stop offset=".97" stop-color="#5d97c9"/><stop offset=".98" stop-color="#6987cd"/><stop offset=".98" stop-color="#7a70d3"/><stop offset=".99" stop-color="#9052da"/><stop offset=".99" stop-color="#ab2ee3"/><stop offset="1" stop-color="#c707ec"/></linearGradient><linearGradient id="F" x1="161.04" y1="252.35" x2="228.76" y2="135.04" xlink:href="#E"/><linearGradient id="G" x1="189.62" y1="247.01" x2="213.07" y2="206.39" xlink:href="#f"><stop offset="0" stop-color="#c707ec"/><stop offset=".02" stop-color="#c10fea"/><stop offset=".17" stop-color="#934edb"/><stop offset=".3" stop-color="#717dcf"/><stop offset=".4" stop-color="#5c99c9"/><stop offset=".46" stop-color="#54a4c6"/><stop offset=".68" stop-color="#55a2c6"/><stop offset=".76" stop-color="#5a9bc8"/><stop offset=".82" stop-color="#6390cb"/><stop offset=".86" stop-color="#6f7fcf"/><stop offset=".9" stop-color="#7f69d4"/><stop offset=".94" stop-color="#934ddb"/><stop offset=".97" stop-color="#aa2ee3"/><stop offset="1" stop-color="#c50aeb"/><stop offset="1" stop-color="#c707ec"/></linearGradient><linearGradient id="H" x1="189.87" y1="246.58" x2="213.16" y2="206.24" xlink:href="#G"/><linearGradient id="I" x1="170.12" y1="320.1" x2="238.07" y2="202.4" xlink:href="#f"><stop offset="0" stop-color="#c707ec"/><stop offset="0" stop-color="#c50aeb"/><stop offset=".01" stop-color="#aa2ee3"/><stop offset=".03" stop-color="#934ddb"/><stop offset=".04" stop-color="#7f69d4"/><stop offset=".06" stop-color="#6f7fcf"/><stop offset=".08" stop-color="#6390cb"/><stop offset=".1" stop-color="#5a9bc8"/><stop offset=".14" stop-color="#55a2c6"/><stop offset=".23" stop-color="#54a4c6"/><stop offset=".28" stop-color="#737ad0"/><stop offset=".4" stop-color="#c110ea"/><stop offset=".41" stop-color="#c707ec"/><stop offset=".6" stop-color="#9f3edf"/><stop offset=".93" stop-color="#54a4c6"/><stop offset=".96" stop-color="#56a2c7"/><stop offset=".97" stop-color="#5b9ac8"/><stop offset=".97" stop-color="#648ecb"/><stop offset=".98" stop-color="#727bd0"/><stop offset=".99" stop-color="#8364d6"/><stop offset=".99" stop-color="#9946dd"/><stop offset="1" stop-color="#b224e5"/><stop offset="1" stop-color="#c707ec"/></linearGradient><linearGradient id="J" x1="170.17" y1="320.02" x2="238.02" y2="202.49" xlink:href="#I"/><linearGradient id="K" x1="200.13" y1="314.97" x2="223.64" y2="274.26" xlink:href="#G"/><linearGradient id="L" x1="200.17" y1="314.92" x2="223.67" y2="274.23" xlink:href="#G"/><linearGradient id="M" x1="77.65" y1="387.5" x2="271.63" y2="51.52" xlink:href="#f"><stop offset="0" stop-color="#7b70d3"/><stop offset=".05" stop-color="#9e3fde"/><stop offset=".1" stop-color="#7874d2"/><stop offset=".11" stop-color="#707fcf"/><stop offset=".14" stop-color="#6390cb"/><stop offset=".17" stop-color="#5a9bc8"/><stop offset=".21" stop-color="#55a2c6"/><stop offset=".32" stop-color="#54a4c6"/><stop offset=".37" stop-color="#5b9ac8"/><stop offset=".46" stop-color="#6e80cf"/><stop offset=".55" stop-color="#8660d7"/><stop offset=".76" stop-color="#c707ec"/></linearGradient><linearGradient id="N" x1="77.7" y1="387.41" x2="271.7" y2="51.37" xlink:href="#M"/><linearGradient id="O" x1="209.97" y1="385.23" x2="269.34" y2="282.4" xlink:href="#f"><stop offset=".08" stop-color="#7874d2"/><stop offset=".15" stop-color="#7578d1"/><stop offset=".21" stop-color="#6c84ce"/><stop offset=".28" stop-color="#5d99c9"/><stop offset=".31" stop-color="#54a4c6"/><stop offset=".32" stop-color="#5a9cc8"/><stop offset=".35" stop-color="#6b85cd"/><stop offset=".38" stop-color="#8660d6"/><stop offset=".4" stop-color="#9e3fde"/><stop offset=".47" stop-color="#8c58d8"/><stop offset=".65" stop-color="#648fcb"/><stop offset=".74" stop-color="#54a4c6"/><stop offset=".85" stop-color="#55a2c6"/><stop offset=".9" stop-color="#5a9bc8"/><stop offset=".93" stop-color="#6390cb"/><stop offset=".95" stop-color="#6f7fcf"/><stop offset=".97" stop-color="#7f69d4"/><stop offset=".99" stop-color="#934eda"/><stop offset="1" stop-color="#9e3fde"/></linearGradient><linearGradient id="P" x1="210.02" y1="385.15" x2="269.29" y2="282.49" xlink:href="#O"/><linearGradient id="Q" x1="236.24" y1="296.3" x2="364.67" y2="73.86" xlink:href="#f"><stop offset="0" stop-color="#9e3fde"/><stop offset=".05" stop-color="#7874d2"/><stop offset=".08" stop-color="#707fcf"/><stop offset=".13" stop-color="#6390cb"/><stop offset=".21" stop-color="#5a9bc8"/><stop offset=".31" stop-color="#55a2c6"/><stop offset=".6" stop-color="#54a4c6"/><stop offset=".69" stop-color="#5b9ac8"/><stop offset=".83" stop-color="#6e80cf"/><stop offset=".98" stop-color="#8660d7"/><stop offset="1" stop-color="#c707ec"/></linearGradient><linearGradient id="R" x1="236.3" y1="296.21" x2="364.62" y2="73.95" xlink:href="#Q"/><linearGradient id="S" x1="193.67" y1="529.17" x2="306.6" y2="333.58" xlink:href="#f"><stop offset="0" stop-color="#c707ec"/><stop offset=".04" stop-color="#c609ec"/><stop offset=".05" stop-color="#c110ea"/><stop offset=".06" stop-color="#b81be7"/><stop offset=".07" stop-color="#ac2ce3"/><stop offset=".08" stop-color="#9e3fde"/><stop offset=".85" stop-color="#9e3fde"/><stop offset=".87" stop-color="#8c58d8"/><stop offset=".92" stop-color="#648fcb"/><stop offset=".94" stop-color="#54a4c6"/><stop offset=".97" stop-color="#55a2c6"/><stop offset=".98" stop-color="#5a9bc8"/><stop offset=".98" stop-color="#6390cb"/><stop offset=".99" stop-color="#6f7fcf"/><stop offset=".99" stop-color="#7f69d4"/><stop offset="1" stop-color="#934eda"/><stop offset="1" stop-color="#9e3fde"/></linearGradient><linearGradient id="T" x1="193.61" y1="529.09" x2="306.47" y2="333.62" xlink:href="#S"/><linearGradient id="U" x1="207.47" y1="579.65" x2="320.59" y2="383.73" xlink:href="#S"/><linearGradient id="V" x1="207.34" y1="579.8" x2="320.5" y2="383.8" xlink:href="#S"/><linearGradient id="W" x1="221.51" y1="630.42" x2="334.62" y2="434.5" xlink:href="#S"/><linearGradient id="X" x1="221.37" y1="630.56" x2="334.53" y2="434.56" xlink:href="#S"/><linearGradient id="Y" x1="278.56" y1="606.47" x2="316.59" y2="540.62" xlink:href="#f"><stop offset="0" stop-color="#c707ec"/><stop offset=".1" stop-color="#bc16e8"/><stop offset=".3" stop-color="#a03cdf"/><stop offset=".57" stop-color="#7479d0"/><stop offset=".75" stop-color="#54a4c6"/><stop offset=".86" stop-color="#55a2c6"/><stop offset=".9" stop-color="#5a9bc8"/><stop offset=".93" stop-color="#6390cb"/><stop offset=".95" stop-color="#6f7fcf"/><stop offset=".97" stop-color="#7f69d4"/><stop offset=".99" stop-color="#934eda"/><stop offset="1" stop-color="#9e3fde"/></linearGradient><linearGradient id="Z" x1="278.45" y1="606.6" x2="316.5" y2="540.69" xlink:href="#Y"/><linearGradient id="f" gradientUnits="userSpaceOnUse"/><clipPath id="a"><path d="M134.8 189.7l44.53 28.93-2.16-1.26-44.54-28.93c.7.47 1.45.84 2.17 1.26z" fill="none"/></clipPath><clipPath id="b"><path d="M186.83 127l44.54 28.92c-.54-.18-44.46-28.88-45-29.14a2.1 2.1 0 01.46.22z" fill="none"/></clipPath><clipPath id="c"><path d="M186.8 286.37l-44.54-28.93c.64.39 44.42 28.85 45 29.25z" fill="none"/></clipPath><clipPath id="d"><path d="M216.56 324.7L172 295.77c1.17.08 44.56 28.92 45.64 29.4a3.57 3.57 0 01-1.08-.47z" fill="none"/></clipPath><clipPath id="e"><path d="M166 328.62l44.53 28.93c-5.21-2.25-12.65-.52-16.88-4.26l-44.54-28.92c4.27 3.73 11.7 2 16.89 4.25z" fill="none"/></clipPath></defs><path d="M138.94 173a11.69 11.69 0 01-4.21-5v-.13h-.09l-.57-1.39.06-.16h-.1l-.43-1.42.06-.19h-.1l.06-.16h-.09c-4.83-17 14.1-45.45 6.94-50.53l.11-.17-.05.09.06-.09 44.64 29a3.7 3.7 0 01.79.79c1.36 2.34.91 5.28.4 7.81-2.75 9.83-6.77 18.93-8.33 29-.67 4.87-.9 9.91.65 14.64l-.06.13h.1a12.12 12.12 0 004.76 6.4l-.11.16z" fill="url(#A)"/><path d="M186.83 147.07c3.16-4-44.93-30.89-46.26-33 4.4 5-.38 12.43-1.7 17.92-3.58 11.93-9.77 26.32-2.84 38.08-.39 1.77 45.93 30.22 47.5 31.75-15.43-14.96 2.19-37.46 3.3-54.75z" fill="url(#B)"/><g fill="#c707ec" clip-path="url(#a)"><path d="M179.28 218.71l-2.17-1.26-44.53-28.93.11-.16c.69.46 1.45.84 2.16 1.26l44.54 28.92z"/><path d="M134.8 189.7l44.53 28.93-2.16-1.26-44.54-28.93c.7.47 1.45.84 2.17 1.26"/></g><path d="M199.34 188.68a3.63 3.63 0 01-2-.57l-44.54-28.92.11-.17a3.62 3.62 0 002.57.47l.12.08v-.1c2.94-.71 4.84-3.39 6.43-5.75l.15-.05-.08-.06c3.78-6.55 6.8-13.67 12-19.29l.19-.06-.08-.07 1.1-1.19h.15l-.07-.07c.64-.66 1.24-1.25 1.89-1.85h.15l-.07-.08 1.05-.92h.17l-.07-.07a23.39 23.39 0 011.82-1.44h.15l-.06-.08c1.55-1 3.36-2.15 5.29-2 1.06-.16 44.45 28.87 45.33 29.15l-.1.18a3.49 3.49 0 00-2.19-.09l-.14-.07v.1a15.07 15.07 0 00-5.46 3.29H223l.06.08a44.38 44.38 0 00-4.15 4.08h-.15l.07.06a63 63 0 00-8.41 12.59c-2.42 4.44-5.42 12.27-11.08 12.82z" fill="url(#C)"/><path d="M186.41 126.8c-7.06-.72-13 8.59-16.86 13.64-4.57 5.26-7.76 21.34-16.7 18.66l44.53 28.9a3.71 3.71 0 002.75.46c6.85-2.44 8.55-10.81 12.23-16.33 4.28-6.22 10.17-16.67 18.58-16.44z" fill="url(#D)"/><g fill="#c707ec" clip-path="url(#b)"><path d="M231.32 156c-.53-.18-44.48-28.89-45-29.15l.09-.18c.56.19 44.47 28.89 45 29.16z"/><path d="M186.83 127l44.54 28.92c-.54-.18-44.46-28.88-45-29.14a2.1 2.1 0 01.42.22"/></g><path d="M149.17 242.39a10.93 10.93 0 01-2.87-2.8v-.16l-.08.06-.47-.73v-.16l-.08.05-.43-.77v-.17h-.09l-.39-.84v-.18h-.09v-.18h-.09c-4.49-11.51 1.55-29.8 5.79-41.08l.16-.11h-.09l.16-.1-.09-.05a21.9 21.9 0 015.45-7.41h.15l-.06-.07c.75-.66 1.43-1.2 2.18-1.75h.16l-.06-.08c14.19-9 26.52-21.13 34.86-35.77 5.36-9.6 13.58-25.54 2.56-34l.25-.09v.09-.09c.86.62 44.66 28.89 45.4 29.55v.16l.06-.08a9.05 9.05 0 01.74.65v.16l.07-.07c.23.21.62.66.78.85v.15l.08-.06a9.43 9.43 0 01.64.88v.16l.09-.06a9.29 9.29 0 01.55 1v.14h.09a11.58 11.58 0 01.49 1.1l-.05.16h.1c2.73 8.22-1 16.91-4.6 24.26A103.56 103.56 0 01203.11 215h-.17l.06.08c-7.44 4.9-9.7 13.89-11.91 22-2.27 8.49-4.65 17.67-2.35 26.41l-.05.18h.09a13 13 0 005.15 7.59l-.11.16z" fill="url(#E)"/><path d="M245.86 155.71c-.08-3.76-1.44-7.67-4.49-10-.77-.69-44.54-28.94-45.45-29.59 16.22 14.43-8.14 44-19.12 55.58-8.65 10-24 14-27.71 27.68-3.5 12.66-9.88 27.73-2.75 40.13-1.59 1 46.66 30.83 47.54 31.84-12.91-9.85-2.77-41.31 4.89-52.58 8.21-7.51 18.48-12.65 25.7-21.37 10.09-11.74 20.7-25.69 21.39-41.69z" fill="url(#F)"/><g fill="#c707ec" clip-path="url(#c)"><path d="M187.25 286.77c-.65-.38-44.41-28.85-45-29.24l.11-.17c.66.4 44.4 28.84 45 29.24z"/><path d="M142.77 257.76l44.53 28.93c-.64-.39-44.41-28.85-45-29.25l.51.32"/></g><path d="M209 257.69a3.32 3.32 0 01-1.8-.52l-44.53-28.93.11-.17c2.28 1.44 4.9-.55 6.44-2.2h.16l-.07-.07c6.54-7.24 9.63-17.31 15.93-24.77l.17-.06-.07-.07c.14-.18.63-.76.69-.83h.16l-.08-.06c.49-.56.88-1 1.39-1.48h.16l-.07-.07a13.3 13.3 0 012.81-2.14h.14v-.09a5.59 5.59 0 01.56-.27h.16v-.09a4.58 4.58 0 013.68 0c.9.38 44.34 28.81 45.15 29.26l-.11.17a4.32 4.32 0 00-1.22-.55l-.13-.14v.1a4.09 4.09 0 00-.61-.1l-.1-.1v.1a4.84 4.84 0 00-1.2.12l-.16-.07v.1a5.84 5.84 0 00-.64.2l-.14-.05v.1a13 13 0 00-4.23 3.2h-.14l.07.07c-.22.23-.44.47-.65.72h-.15l.07.07a72.62 72.62 0 00-7.37 11l-.17.1.08.05c-2.71 4.53-5.48 10.88-9.27 14.6h-.16l.08.07-.37.38h-.17l.07.07a6.86 6.86 0 01-4.47 2.35z" fill="url(#G)"/><path d="M240 225.23c-50.71-29.5-44.52-45.1-66.75-4.32-2.29 3.2-5.89 9.33-10.49 7.24.89 0 47.56 32.61 47.78 29.14 8.09-4.71 10.46-15 15.75-22.21 3.11-4.17 7.47-12.73 13.71-9.85z" fill="url(#H)"/><path d="M158.65 310.27a12.34 12.34 0 01-2.14-1.78v-.11h-.12a11.74 11.74 0 01-.77-.92v-.15l-.08.06a14.53 14.53 0 01-2-3.86v-.19h-.09v-.18h-.1c-2.92-10.59.08-22.26 3.57-32.41l.14-.09h-.09v-.14l.14-.06h-.09c.28-.71.58-1.41.89-2.09l.14-.07h-.09c.26-.58.83-1.71 1.17-2.34l.17-.11-.09-.05a32.44 32.44 0 015.15-7.07h.15l-.07-.07c.33-.34.7-.71 1.05-1h.16l-.07-.08c.79-.73 1.58-1.41 2.4-2.08h.15l-.07-.08c17.47-11.88 33.62-27.88 40.3-48.42l.14-.1h-.1a46.58 46.58 0 001.54-6.59l.11-.14h-.1a24.63 24.63 0 00-.17-9.06l.07-.13h-.1a11.93 11.93 0 00-5-7.39l.11-.17 44.62 29a12.28 12.28 0 011.41 1.1v.13h.11c.17.16.35.33.5.5v.17l.08-.07a11.37 11.37 0 011.62 2.28l-.07.09h.14a12.64 12.64 0 01.62 1.37v.17h.09v.18h.1a15.07 15.07 0 01.47 1.54l-.06.16h.09a24.86 24.86 0 01.2 9.18l-.11.09h.1a43.12 43.12 0 01-.83 4.1l-.14.13h.1a54.36 54.36 0 01-2 6.22l-.14.09h.1a65.94 65.94 0 01-3.55 7.51l-.16.09h.09A96.5 96.5 0 01227.75 273c-5.76 5.35-13 9.16-18.45 14.63h-.15l.08.07a32.07 32.07 0 00-5.23 7.22l-.14.06h.09c-.36.66-.71 1.37-1 2.11l-.15.08h.09c-4.34 10.8-7.68 23.39-4.62 34.92l-.05.15h.09a12.76 12.76 0 005 6.74l-.11.16z" fill="url(#I)"/><path d="M255.07 223.91c-.08-4-1.31-8.19-4.49-10.78-.9-.87-44.55-28.94-45.63-29.74 15.37 14-3.89 41.18-14.33 53.23-12.38 14.23-32.6 20.74-35.83 41.54-2 9.39-4.77 20.6.9 29.19-1.93.56 46.9 30.94 47.55 31.76-13.14-10.44-3.84-40.86 5.91-51.47 20.72-15.93 44.72-35.38 45.92-63.73z" fill="url(#J)"/><g fill="#c707ec" clip-path="url(#d)"><path d="M217.64 325.26c-1.16 0-44.59-28.95-45.67-29.4l.11-.17c1.18.07 44.56 28.91 45.64 29.39zm-44.58-28.93c.28.17 43.52 28.29 43.77 28.41-.01.01-43.74-28.43-43.77-28.41z"/><path d="M173.13 296.24l44.54 28.93c-1.19-.06-44.56-28.93-45.64-29.4a3.52 3.52 0 001.1.47"/></g><path d="M218.7 325.4c-1.25.76-44.6-28.94-45.62-29.08l.08-.18a4.33 4.33 0 001.17.13l.12.09v-.1a4.86 4.86 0 001.37-.3l.15.05v-.09h.15v-.09c2.6-1.15 4.34-3.47 5.88-5.75l.14-.05-.14-.03c4.09-7.07 7.49-15 13.43-20.74h.16l-.07-.07c.6-.61 1.49-1.42 2.1-1.93h.15l-.06-.07a24.4 24.4 0 013.53-2.5h.17l-.05-.09.43-.22h.16l-.05-.09a6.23 6.23 0 012.85-.74l.14.11v-.1c1.44-.31 44.56 28.92 45.82 29.32l-.11.17a2.41 2.41 0 00-1-.36l-.09-.1v.1a6.54 6.54 0 00-3.54 1h-.15v.09c-.28.12-.49.37-.79.35l.05.09a29.23 29.23 0 00-2.72 2h-.15l.06.07c-.75.63-1.48 1.31-2.17 2h-.15l.07.07c-5.91 5.81-9.22 13.52-13.29 20.56l-.15.06.08.05a25 25 0 01-2.12 2.85h-.16l.07.06a11 11 0 01-3.72 2.91h-.15v.09h-.16v.09a5.13 5.13 0 01-1.72.37z" fill="url(#K)"/><path d="M245.77 293.73c1.43-.77 3.33-1.63 4.88-.7l-44.54-28.93a2.87 2.87 0 00-1.79-.39c-10.46 3.28-15.81 14.64-20.67 23.67-2.26 3.81-5.34 9.62-10.52 8.86.63.12 44.41 29.4 45.17 29 4.83 0 7.6-5.12 9.79-8.78 4.36-8.52 9.21-17.61 17.68-22.73z" fill="url(#L)"/><g fill="#c707ec" clip-path="url(#e)"><path d="M210.51 357.63c-5.29-2.23-12.58-.5-16.89-4.25l-44.53-28.93.11-.17c4.3 3.75 11.62 2 16.88 4.26l44.54 28.92zm-3.81-1.32a7 7 0 012.38.4l-43.11-28c-4.39-2.21-10.53-.43-14.57-3 9.34 4.5 44.14 33.18 55.3 30.6z"/><path d="M166 328.62l44.53 28.93c-5.21-2.25-12.65-.52-16.88-4.26l-44.54-28.92c4.24 3.73 11.67 2 16.89 4.25"/></g><path d="M165.59 435.06a11.1 11.1 0 01-2.5-2.33v-.16l-.08.07-.42-.54v-.1l-.08.06-1.54-2.26v-.16l-.09.05c-5.83-10-10.72-20.76-17.94-29.79v-.16l-.08.06c-17.65-21.43-43.15-34.53-64.23-52.08v-.15l-.06.08c-7.44-6.39-15.39-13.33-22.24-20.29v-.17l-.08.07c-30-31.51-37.63-77.57-32.55-119.49C30.2 149.13 64.33 96.13 111 61h.18l-.06-.08c20.72-16 44.51-28.9 70.43-33.69 45.2-11 79.78 19 114.62 41.42l-.11.17c-51.47-33.54-116.1-3-156.5 34.7-55.69 48.59-85.9 128.19-67.06 200.82 5.38 19.08 14.74 37.38 28.52 51.76A334.09 334.09 0 00129 381c10.53 8.1 22.2 15.58 32.69 23.82v.15l.06-.08c14.9 11.27 26.68 21.72 35.57 38.53 3.44 5.87 6.31 12.68 10.43 18.1v.15l.08-.06a13.81 13.81 0 00.6.68v.15l.07-.07a9 9 0 001.74 1.47l-.11.17z" fill="url(#M)"/><path d="M251.58 39.84C174.44-8.71 72.15 75.53 40.47 148.05c-23 51.77-27.52 117.41 5.21 166 23.64 33.43 62.27 51 91.37 78.8 8.55 8.75 14.67 19.47 20.29 30.22 2.2 3.92 4.1 8.16 7.44 11.25.71.69 44.54 28.93 45.4 29.57-8.44-8-11.45-20.28-18.49-29.51-23.18-32.15-62.31-47.51-89-76.43-35.4-35.38-41.22-90-31.88-137.19 14.54-90.3 134.38-207.32 225.27-152z" fill="url(#N)"/><path d="M219.52 387.53a2.79 2.79 0 01-.52-.53v-.15l-.08.06c-1-1.39-.94-3.24-1.47-4.83a128.73 128.73 0 00-18.79-35.2v-.19l-.08.07c-4.18-5.12-9.3-12.77-13-18.11v-.15l-.09.05a8 8 0 01-.87-3.45l.1-.11h-.1a11.84 11.84 0 01.08-1.59l.11-.09h-.1a13.32 13.32 0 01.85-3.21l.15-.09h-.09c0-.09.22-.51.26-.61l.14-.06h-.09a14.8 14.8 0 012.42-3.59h.14l-.07-.06c5.54-5.13 11.48-10.08 16.16-16.07 7.33-10.42 14.84-21.95 15.77-35l.11-.14h-.1a25.23 25.23 0 00-.25-4.35l.07-.19h-.09c-.54-3.41-2.12-6.73-5-8.61l.11-.17c1.56 1.12 44.16 28.46 45.61 29.73v.11l.09-.05a11.2 11.2 0 012.85 4l-.05.15h.09c4.79 13.53-4.71 29.14-12.12 40.06l.08.06A69.93 69.93 0 01241.47 337l-.2.05.07.07-2.08 2h-.17l.07.07c-3.67 3.46-8.26 6.4-9.42 11.59l-.13.11h.1a13.27 13.27 0 00-.26 1.4l-.12.09h.1a14.55 14.55 0 00-.07 1.46l-.09.12h.1c-.3 2.27 2.28 5.6 3.24 6.88 3.75 5.35 7.54 11 11.55 15.8v.18l.08-.06c.36.47.71.94 1.08 1.44v.19l.08-.06a10.66 10.66 0 011.38 2.16l.08-.06c.63.93 1.24 1.87 1.84 2.84v.15l.08-.06A144.3 144.3 0 01261.9 410l-.06.15h.1l.32 1.07-.06.15h.09c.09.44.3.75.17 1.1h.1c.28 1.38.45 3.1 1.68 4l-.1.17z" fill="url(#O)"/><path d="M265 291.31c-.15-4.08-1.51-8.46-5-10.92-.41-.31-44.48-28.89-44.9-29.18 13.74 13.47-1.57 34.79-9.79 47.52-5.19 7.78-13.91 12.55-19.09 20.17-1.55 3-2.27 7-.43 10 4.89 7 9.69 14 15 20.64 35.14 56.7-5.33 21.2 63.34 66.88-1.68-1.26-1.44-3.62-2.08-5.43a119.41 119.41 0 00-8.45-19c-6.34-12.49-15.91-22.74-23.48-34.48-4.62-11.94 10.79-18.05 16.63-26.16 9.04-11.35 18.16-25.03 18.25-40.04z" fill="url(#P)"/><path d="M291.9 325.19c-1.78-1.39-1.77-4-1.91-6.08l.1-.11H290a57.3 57.3 0 01.73-9l.12-.13h-.1c15.25-83.32 39.47-133 28.42-202.77-6.54-35.43-24.73-70.62-55.11-91.1l.1-.17c11.51 8.07 50.47 31 59.52 41 17.55 17.57 30 40 36.68 63.86l-.06.12h.1c11 38.9 6.3 80.31-2.62 119.1-6.59 28.26-9.71 39.82-21.61 94.73-.88 5.17-1.86 10.57-1.25 15.79l-.08.16h.1c0 .21.07.43.12.63l-.08.13h.1a4.1 4.1 0 001.73 2.84l-.05.2z" fill="url(#Q)"/><path d="M366 187.39c4-45.53-7.57-93.89-39.62-127.69-10.54-12.6-48.71-34.18-62.29-43.79 27.94 18.77 45.58 50.26 53.34 82.48 14.14 77.89-7.18 110.68-24.78 201.75-1.34 7.67-3.93 15.92-1.78 23.61a3.27 3.27 0 001.39 1.57l44.53 28.93c-5.21-6.17-.3-18.9.65-26.35 16.74-80.77 21.67-78.47 28.56-140.51z" fill="url(#R)"/><path d="M196 528.94c-3.75 2.23-47.31-29.19-51.15-30.83l.11-.17a12.13 12.13 0 005.36 1.81l.15.12v-.1a17.21 17.21 0 0011.8-4.11c3.22-2.47 130.9-133.84 133.9-136.63a27.74 27.74 0 004.69-6.45l.15-.06h-.09c.19-.35.36-.71.53-1.07l.16-.11h-.09c.35-.75.67-1.52.95-2.3l.14-.08h-.1c2.32-6.4 2.45-15.18-3.72-19.41l-.08-.18-.06.08c-.3-.22-.61-.43-.92-.63l.1-.17 44.68 29a20.46 20.46 0 011.69 1.25v.14l.07-.07c.28.24.59.52.85.78v.15l.07-.07a11.31 11.31 0 012.12 3v.16h.09a12.5 12.5 0 01.48 1.2l-.06.13h.09a14.38 14.38 0 01.59 2.43l-.08.16h.1a24.12 24.12 0 01-2.26 13.53l-.16.11h.09a28.7 28.7 0 01-3.94 6.16l-.17.05.07.07c-1.46 1.75-131.65 134.65-133.42 136.5a25 25 0 01-3 2.44h-.15l.06.08a17.34 17.34 0 01-9.64 3.09z" fill="url(#S)"/><path d="M348.61 368.66a12.75 12.75 0 00-5.21-10.38c-.89-.72-44.57-28.95-45.6-29.67 10.88 6.79 6 22.9-1.53 30.48l-98.92 101.14-26 26.62c-6.65 7.23-16 17.44-26.41 11.17 69.31 44.8 44.68 40.53 103-15l72.31-73.93c11.99-14.33 28.29-22.09 28.36-40.43z" fill="url(#T)"/><g fill="#6a87cd"><path d="M151.52 500c-12.88-.12-14.5-15-9.3-24.72 8.48-16.77-4.24-30.42-12.2-43.1C64.25 351.73-3.91 355.3.17 231.82-1.47 145.51 80.46 32.38 164.55 7.92 256.29-24.4 315 48 321.21 120c3.94 38-4.41 75.15-8 91-7.77 33.1-6.14 25-19.81 86.25-9.15 40.09 2.05 20.12 10.36 39.51 1.67 7.07-1.63 16.63-7.45 22.43-5.07 2.41-140.03 150.62-144.79 140.81zm50.26-474.45C70.94 32.09-22.71 211.9 44.18 311.57c22.8 33.34 54.44 47.92 87.34 76 33.38 26 22.88 73.39 60.76 30.91 5.18-5.52 13.7-12.64 15.13-20.35-3.79-19.2-24.09-47.19-39.27-67.3a7.63 7.63 0 00-7.35-3.2c-18.09-.37-22.79-15.5-21.37-33.21.72-7.32 2.59-15.16 6.07-25.44 1.55-4.58.43-9-2.78-11.12-17.64-12.41-14-38-6.4-59.09 1.48-4.09.66-7.88-2-9.21-22.37-14.44-14.92-45.8-2.68-69.47 5-10.41 13.81-7.39 9.92 4.06-4 15.22-13.72 30.87-5.15 46.27 19.19 15.53 40-13 48.64-29.94 1.83-3.94 5.58-10.62 1.33-13.57-10.68.6-17.14 14.27-22.05 23.16-4.66 12.13-17.59 13.71-11.74-1.64 17.15-50.55 74.53-44.12 35.23 10.59-8.85 13.93-23.14 21.51-34.41 32-7.56 13.26-19.91 51.36 2.61 53.15 14.85 1.08 46.76-32.46 40.48-46.79-8.4-6.85-16.42 12.73-20.41 18.75-3.46 5.75-5 10.23-10.8 12.61-6.66.56-4.53-8.56-2.53-12.22 15.44-42.28 62.74-50.07 42.91-1.75-17 37.44-45.8 33.17-51.67 67.35-5.24 22.57 3.06 34.71 20.06 28.56 13.25-5.25 23.95-20.08 30.64-34.29 8.59-19.36-6.48-12.59-13.46-1.77-3.38 4.2-6.67 12.1-10 16.89-5.31 8-12.4 5.75-11.21-2.27A81.77 81.77 0 01192.6 256c13.56-12 32.17-7 27.37 13.5-1.48 8.64-8.72 21.4-14.56 29.34-20.56 23.86-30.15 19.08-6.68 47.86 30.94 39.73 7.5 62 51.44 11.71 7.29-9.6 19.1-18.3 18.93-31.63 8.82-58.75 34.55-140.37 29.57-197.6-4.88-59.41-40.05-102.86-96.89-103.63z"/><path d="M235.08 3.45c96.79 29 94.24 147.08 78.06 207.5l-19.6 85.35c-.71 3.21-6.3 25.66-1.58 28.81 15.35 5.73 15.28 22.54 4.31 34L165 493.32c-12.6 13.23-29.32 5.2-24.82-11.95 8.63-18.06 4.58-27.88-5.19-41.65-13.24-20.17-36.84-41.23-41.23-45.94-62.93-53-93-59.37-93.49-162C-1.89 124.16 123.62-23 235.08 3.45zm28 45.21C194.81-14.51 83.12 64.35 48.47 132.17c-44.63 90.08-32.12 163.31 25.14 211 19.55 17.34 29.55 20.5 57.84 44.44 24.26 19.17 23.69 45.61 38.46 48.34 12.35-4 24.48-19.63 33.85-29.88 13.35-14.29-23.82-58-35.53-75.33a7.37 7.37 0 00-6.36-3.26c-18.69.4-23.88-15.14-22.35-33.08.72-7.31 2.57-15.08 6.06-25.42 1.57-4.63.41-9.15-2.81-11.23-17.65-12.45-14-38-6.37-59 1.51-4.15.69-8-2-9.33-22.3-14.39-14.85-45.74-2.64-69.33 5-10.38 13.57-7.24 9.73 4-3.49 14.19-20.49 46.5 4.67 50.91 12.68-.09 21.57-8.82 30.13-19.94 3.31-6 16.8-21.71 10.12-28.24-6.63-.53-10.93 6.3-15.22 11.27-3.83 4.87-6.13 11.27-10 17.05-7.87 10.19-12.45 1.64-8.5-6.67 14.91-44.75 65.58-46.84 42.59-1.54-7.28 13.81-18.77 26.86-31.19 35.31-3.82 2.64-8 5-10.74 8.68-7.2 13.24-16.41 40.39-4.42 51.19 17.74 8.81 36.27-15.29 45-29.51 8.67-12.65 1-25.31-9.91-9.75-6.56 9-9.21 17.33-14.24 22.64-7.87 8.61-11.27-2.05-6.9-9 6.19-13.6 13.58-25.65 25.5-32.22 32.49-13.59 22.71 29.05 8.92 44.19-13.45 21.11-39.9 25.65-43.37 53.57-5.17 22.67 2.92 34.81 20.2 28.67 13.19-5.18 24-20.18 30.69-34.33 8.66-19.65-6.68-12.7-13.63-1.88-4.69 5.08-9.79 23.09-18 21.74-9.37-5.86 4.93-21.44 9-28.85 10.65-18.3 42.9-29.11 37.77 2-3.82 16.59-16.12 33.79-30.26 45.17-12.93 10.72 4.68 24.75 9 32.11 7.8 9.3 18.32 31 19.34 37.16.24 4.5 4 5 7.17 1.69 9-7.4 17.28-18.06 25.08-27.14 7.59-10.08 18.92-17.88 18.95-31.68 10.15-87.91 67.06-202.91-6.14-278.08"/></g><path d="M209.54 579.3c-3.36 2.4-47.33-29.21-50.87-30.69l.11-.17c5.53 3.52 12.74 1.15 17.48-2.66h.15l-.07-.08c4.64-4 130.82-133.55 135.13-138a29.18 29.18 0 004.69-7.74l.15-.13h-.09a24.44 24.44 0 001.83-9.4l.1-.1h-.1a17.28 17.28 0 00-.65-4.31l.07-.12h-.1a11.57 11.57 0 00-4.66-6.52l.11-.17c2.39 2.19 48.47 29.83 48.17 32.89v.14h.09c2.63 5 2.13 11.54-.19 16.56h.09v.1l-.15.1h.1a29.28 29.28 0 01-2.35 4.52l-.15.06.08.05a29 29 0 01-3.14 4.07l-133 135.9h-.18l.06.08c-3.51 3.21-7.97 5.55-12.71 5.62z" fill="url(#U)"/><path d="M362.62 418c-.31-3.64-1.88-7.35-4.94-9.52-.48-.35-44.43-28.86-44.92-29.19 9.83 7.36 4.75 22.6-2.6 30L177.61 544.77c-4.92 4.51-12.75 7.6-18.89 3.76 1.19.61 44.53 29.16 45.7 29.57 4.8 2.25 10.45.73 14.69-2.06a25.34 25.34 0 004.31-3.56c.88-.94 131.39-134.27 132.15-135.17 4.62-5.22 7.59-12.23 7.05-19.31z" fill="url(#V)"/><g fill="#6a87cd"><path d="M164.92 550.37c-16.06-.84-13.75-22.26-3.66-31.9 6-3.15 138.89-149.81 145.31-141 16.06.85 13.75 22.27 3.66 31.91-6.01 3.16-138.89 149.82-145.31 140.99z"/><path d="M158.64 521.73c2-3.3 131.29-134.28 134-137.43 18.87-18.3 34 4.27 20.24 21.83-2 3.3-131.3 134.28-134 137.43-18.88 18.3-33.99-4.27-20.24-21.83z"/></g><path d="M223.56 630.06c-3.34 2.4-47.32-29.2-50.86-30.68l.11-.17c5.53 3.51 12.74 1.15 17.48-2.67h.15l-.07-.08c3.06-2.27 130.92-133.87 133.75-136.46a29 29 0 005.37-7.71l.15-.08h-.09c.23-.48.44-.95.63-1.44l.16-.12h-.09a24.48 24.48 0 001.83-9.37l.1-.13h-.1a17.13 17.13 0 00-.65-4.3l.07-.13h-.1a11.56 11.56 0 00-4.66-6.52l.11-.16 44.92 29.19a10.7 10.7 0 011.89 1.73v.14l.07-.07a11.62 11.62 0 011.3 1.9v.13h.1a13.09 13.09 0 011 2.49l-.05.18h.1c1.31 4.58.55 9.48-1.16 13.85l-.16.12h.1c-.19.46-.41 1-.63 1.43l-.13.05h.09a29 29 0 01-4 6.25h-.16l.07.06C368 490.05 238.81 622 236.37 624.42l-.19.05.06.07c-.28.26-.9.78-1.13 1h-.18l.06.07h-.17l.06.08a19.1 19.1 0 01-11.32 4.37z" fill="url(#W)"/><path d="M376.64 468.8c-.3-3.64-1.87-7.35-4.92-9.51-.48-.36-44.44-28.86-44.92-29.19 9.82 7.35 4.73 22.6-2.62 30-1.72 1.64-130.78 133.9-132.54 135.44-4.92 4.51-12.75 7.59-18.88 3.75 1.18.62 44.53 29.17 45.69 29.58 4.8 2.25 10.44.73 14.69-2.06a25.8 25.8 0 004.31-3.57c.88-.93 131.38-134.26 132.14-135.16 4.62-5.22 7.6-12.24 7.05-19.28z" fill="url(#X)"/><g fill="#6a87cd"><path d="M179 601.14c-16-.85-13.75-22.27-3.66-31.9 6-3.15 138.89-149.82 145.31-141 16.06.85 13.75 22.27 3.65 31.91C318.25 463.3 185.36 610 179 601.14z"/><path d="M172.66 572.51c2-3.31 131.3-134.29 134-137.44 18.88-18.3 34 4.27 20.24 21.83-2 3.3-131.3 134.27-134 137.42-18.85 18.3-33.98-4.26-20.24-21.81z"/></g><path d="M299.25 615.92c-7.93 1.58-47.74-28.66-54.76-32l.11-.17-.1.17.1-.17c9 5.82 20.88 2.69 29.13-3.07h.18l-.06-.08a46.83 46.83 0 004.53-3.58h.18l-.07-.08a52.63 52.63 0 0015.83-27.49h-.1c1.43-7.38 1.07-15.51-2.9-22.05v-.16l-.08.05a5.59 5.59 0 00-1.54-1.86l.11-.17 44.53 28.93a3.73 3.73 0 01.76.67 17.8 17.8 0 011.4 2.19v.14l.09-.05a22.28 22.28 0 011 2.15v.19h.09c2.77 6.81 2.5 14.42.75 21.44l-.14.1h.1a51.11 51.11 0 01-19.86 28.73h-.17l.05.08c-5.57 3.71-12.41 6.36-19.16 6.09z" fill="url(#Y)"/><path d="M339.43 574.45c.65-6.85-.3-14.34-4.64-19.88-.63-.65-44.36-28.8-45-29.32 18.81 24.76-15.6 74.06-45.22 58.53l44.54 28.93a18.65 18.65 0 001.68 1c7.07 3.62 15.66 2.32 22.56-1.11 14.27-7.24 24.27-22.32 26.08-38.15z" fill="url(#Z)"/><g fill="#6a87cd"><path d="M255.66 587c-8.57.33-22.8-7.62-14.72-16.87 1.68-.85 45.23-48.6 46.89-45.55 12.5 7.55 8 30.26-2.17 44.58-6.89 9.93-19.52 18.16-30 17.84z"/><path d="M240.18 571.22c.62-1 42.47-43.44 43.3-44.42 2.45-2.51 5.69-2.81 7.19-.67 7.58 10.81 5.11 28.94-5.1 43-11.24 17-36.67 24.74-46.28 9.55-1.29-1.88-.89-5.03.89-7.46z"/></g></svg>