<svg style="   
  -webkit-filter: drop-shadow( 3px 3px 2px rgba(0, 0, 0, .7));
  filter: drop-shadow( 3px 3px 2px rgba(0, 0, 0, .7));
"
  xmlns="http://www.w3.org/2000/svg"
  xmlns:xlink="http://www.w3.org/1999/xlink" viewBox="0 0 290.91 342.87">
  <defs>
    <linearGradient id="light_yellow" data-name="light yellow" x1="115.7" y1="163.6" x2="119.99" y2="163.6" gradientUnits="userSpaceOnUse">
      <stop offset="0" stop-color="#ffa615"/>
      <stop offset=".49" stop-color="#ffa815"/>
      <stop offset=".67" stop-color="#ffaf14"/>
      <stop offset=".8" stop-color="#ffba13"/>
      <stop offset=".9" stop-color="#ffcb11"/>
      <stop offset=".9" stop-color="#fc1"/>
    </linearGradient>
    <linearGradient id="linear-gradient" x1="29.63" y1="314.39" x2="70.9" y2="314.39" gradientUnits="userSpaceOnUse">
      <stop offset="0" stop-color="#ffa615"/>
      <stop offset=".3" stop-color="#ffa914"/>
      <stop offset=".55" stop-color="#ffb411"/>
      <stop offset=".77" stop-color="#ffc50c"/>
      <stop offset=".99" stop-color="#ffdd04"/>
      <stop offset="1" stop-color="#ffde04"/>
    </linearGradient>
    <linearGradient id="linear-gradient-2" x1="180.25" y1="86.59" x2="208.01" y2="86.59" gradientUnits="userSpaceOnUse">
      <stop offset=".3" stop-color="#ffc911"/>
      <stop offset=".35" stop-color="#ffc312"/>
      <stop offset=".53" stop-color="#ffb314"/>
      <stop offset=".74" stop-color="#ffa915"/>
      <stop offset="1" stop-color="#ffa615"/>
    </linearGradient>
    <linearGradient id="linear-gradient-3" x1="180.35" y1="86.59" x2="207.91" y2="86.59" xlink:href="#linear-gradient-2"/>
    <linearGradient id="light_yellow-2" x1="190.79" y1="102.21" x2="216.84" y2="102.21" xlink:href="#light_yellow"/>
    <linearGradient id="light_yellow-3" x1="190.89" y1="102.2" x2="216.74" y2="102.2" xlink:href="#light_yellow"/>
    <linearGradient id="linear-gradient-4" x1="152.41" y1="117.28" x2="224.6" y2="117.28" gradientUnits="userSpaceOnUse">
      <stop offset="0" stop-color="#fc1"/>
      <stop offset=".24" stop-color="#ffa615"/>
      <stop offset=".25" stop-color="#ffa615"/>
      <stop offset=".66" stop-color="#ffa815"/>
      <stop offset=".81" stop-color="#ffaf14"/>
      <stop offset=".91" stop-color="#ffba13"/>
      <stop offset="1" stop-color="#ffcb11"/>
      <stop offset="1" stop-color="#fc1"/>
    </linearGradient>
    <linearGradient id="linear-gradient-5" x1="152.44" y1="117.28" x2="224.54" y2="117.28" xlink:href="#linear-gradient-4"/>
    <linearGradient id="light_yellow-4" x1="162.99" y1="133" x2="188.57" y2="133" xlink:href="#light_yellow"/>
    <linearGradient id="light_yellow-5" x1="163.09" y1="133" x2="188.47" y2="133" xlink:href="#light_yellow"/>
    <linearGradient id="linear-gradient-6" x1="125" y1="147.28" x2="197.35" y2="147.28" gradientUnits="userSpaceOnUse">
      <stop offset="0" stop-color="#fc1"/>
      <stop offset=".18" stop-color="#ffb613"/>
      <stop offset=".31" stop-color="#ffab14"/>
      <stop offset=".57" stop-color="#ffae14"/>
      <stop offset=".78" stop-color="#ffb813"/>
      <stop offset=".97" stop-color="#ffc811"/>
      <stop offset="1" stop-color="#fc1"/>
    </linearGradient>
    <linearGradient id="linear-gradient-7" x1="125.1" y1="147.28" x2="197.25" y2="147.28" xlink:href="#linear-gradient-6"/>
    <linearGradient id="light_yellow-6" x1="135.79" y1="163.85" x2="161.58" y2="163.85" xlink:href="#light_yellow"/>
    <linearGradient id="light_yellow-7" x1="135.89" y1="163.86" x2="161.48" y2="163.86" xlink:href="#light_yellow"/>
    <linearGradient id="light_yellow-9" x1="115.64" y1="163.6" x2="120.09" y2="163.6" xlink:href="#light_yellow"/>
    <linearGradient id="linear-gradient-8" x1="71.32" y1="120.01" x2="276.45" y2="120.01" gradientUnits="userSpaceOnUse">
      <stop offset=".24" stop-color="#ffa615"/>
      <stop offset=".6" stop-color="#ffa815"/>
      <stop offset=".73" stop-color="#ffaf14"/>
      <stop offset=".83" stop-color="#ffba13"/>
      <stop offset=".9" stop-color="#ffcb11"/>
      <stop offset=".9" stop-color="#fc1"/>
    </linearGradient>
    <linearGradient id="linear-gradient-9" x1="71.42" y1="120.04" x2="276.2" y2="120.04" xlink:href="#linear-gradient-8"/>
    <linearGradient id="light_yellow-12" x1="160.25" y1="171.54" x2="290.91" y2="171.54" xlink:href="#light_yellow"/>
    <linearGradient id="light_yellow-13" x1="160.39" y1="171.54" x2="290.87" y2="171.54" xlink:href="#light_yellow"/>
    <linearGradient id="light_yellow-14" x1="36.57" y1="235.73" x2="161.56" y2="235.73" xlink:href="#light_yellow"/>
    <linearGradient id="light_yellow-15" x1="36.67" y1="235.68" x2="161.46" y2="235.68" xlink:href="#light_yellow"/>
    <linearGradient id="light_yellow-16" x1="18.31" y1="261.89" x2="143.56" y2="261.89" xlink:href="#light_yellow"/>
    <linearGradient id="light_yellow-17" x1="18.41" y1="261.84" x2="143.46" y2="261.84" xlink:href="#light_yellow"/>
    <linearGradient id="light_yellow-18" x1="0" y1="288.3" x2="125.25" y2="288.3" xlink:href="#light_yellow"/>
    <linearGradient id="light_yellow-19" x1=".1" y1="288.25" x2="125.15" y2="288.25" xlink:href="#light_yellow"/>
    <linearGradient id="linear-gradient-11" x1="29.53" y1="314.43" x2="71" y2="314.43" xlink:href="#linear-gradient"/>
    <linearGradient id="linear-gradient-12" x1="29.53" y1="314.43" x2="71" y2="314.43" xlink:href="#linear-gradient"/>
    <linearGradient id="linear-gradient-13" x1="29.63" y1="314.38" x2="70.9" y2="314.38" xlink:href="#linear-gradient"/>
    <linearGradient id="light_yellow-20" x1="110.02" y1="176.03" x2="170.19" y2="176.03" xlink:href="#light_yellow"/>
    <linearGradient id="light_yellow-21" x1="109.75" y1="175.98" x2="170.25" y2="175.98" xlink:href="#light_yellow"/>
    <clipPath id="clip-path">
      <path class="cls-1" d="M207.18 55.9c-.1.87 1.06 39.74.73 40.56.09-.87-1.05-39.74-.73-40.56z"/>
    </clipPath>
    <clipPath id="clip-path-2">
      <path class="cls-1" d="M171.52 80.77l.83 39.8c0-.62-.12-1.23-.12-1.84l-.83-39.8c0 .62.08 1.23.12 1.84z"/>
    </clipPath>
    <clipPath id="clip-path-3">
      <path class="cls-1" d="M216 85.76l.83 39.8c-.1-.39-.83-39.73-.87-40.13a1.24 1.24 0 01.04.33z"/>
    </clipPath>
    <clipPath id="clip-path-4">
      <path class="cls-1" d="M136.58 180l-.83-39.8c.36.84.83 39.71 1 40.6a2.54 2.54 0 01-.17-.8z"/>
    </clipPath>
    <clipPath id="clip-path-5">
      <path class="cls-2" d="M119.15 149.17L120 189c-5.2-7.23-3.66-42-4.25-50.73-.41 3.73 2.79 7.18 3.4 10.9z"/>
    </clipPath>
    <clipPath id="clip-path-6">
      <path class="cls-3" d="M70.07 289l.83 39.8c-2 10-14.65 15.83-25.05 13.44-9.1-1.92-15.23-8.82-15.39-16.44l-.83-39.8c.37 20.67 36.24 22.71 40.44 3z"/>
    </clipPath>
    <style>
      .cls-1{fill:none}.cls-2{fill:url(#light_yellow)}.cls-3{fill:url(#linear-gradient)}.cls-4{isolation:isolate}.cls-6{fill:#ffb311}.cls-7{fill:#ffb410}.cls-11{fill:#ffa615}.cls-25{fill:url(#light_yellow-9)}.cls-34{fill:#ffde04}.cls-43{fill:#ffb111}
    </style>
  </defs>
  <g id="Layer_2" data-name="Layer 2">
    <g id="Light-Bulb">
      <g id="YellowLightBulb">
        <g clip-path="url(#clip-path)">
          <path class="cls-1" d="M207.81 96.46c.09-.87-1.05-39.74-.73-40.56h.2c-.1.78 1.07 39.88.73 40.59z"/>
          <g class="cls-4">
            <path class="cls-6" d="M208.09 96.09h-.2c0-.39-.89-39.83-.81-40.18h.2c-.02.54.89 39.64.81 40.18z"/>
            <path class="cls-6" d="M207.18 55.9c0 .56.89 39.64.81 40.18 0-.56-.89-39.65-.81-40.18"/>
            <path class="cls-7" d="M208 96.49h-.2c.08-.5-1-39.74-.75-40.19h.2c-.07.57 1.02 39.63.75 40.19z"/>
            <path class="cls-7" d="M207.16 56.28c-.08.49 1 39.73.75 40.18.08-.49-1-39.73-.75-40.18"/>
          </g>
        </g>
        <path d="M180.25 76.72c-.08-3.7 2.45-7.28 5.45-9.14l-.06-.08c5.56-4.06 12-5.5 18.42-7.93l-.05-.09a14.07 14.07 0 002.44-1.73l-.08-.06a3.51 3.51 0 00.59-1h.22l.83 39.8c-.23.5-.38 1.06-.86 1.24l.07.07c-.11.11-.21.3-.39.26l.07.07a4.91 4.91 0 01-2.15 1.34l.05.09c-8.64 3.79-22.5 5.57-23.52 17h-.2z" fill="url(#linear-gradient-2)"/>
        <path d="M207.91 96.47l-.83-39.81c-5 6.4-15.48 5.4-21.51 11-2.83 2.14-5.32 5.32-5.22 9l.83 39.79c.82-14.09 21.38-12.45 26.73-19.98z" fill="url(#linear-gradient-3)"/>
        <g clip-path="url(#clip-path-2)">
          <path class="cls-1" d="M172.25 120.54c0-.6-.12-1.2-.12-1.81l-.83-39.8h.2-.2.2c0 .6.09 1.2.12 1.8l.83 39.76a.48.48 0 01-.2 0z"/>
          <g class="cls-4">
            <path class="cls-11" d="M172.25 120.57c0-.61-.12-1.22-.12-1.84l-.83-39.8h.2c0 .6.08 1.23.12 1.84l.83 39.79z"/>
            <path class="cls-11" d="M171.52 80.77l.83 39.8c0-.62-.12-1.23-.12-1.84l-.83-39.8c0 .62.08 1.23.12 1.84"/>
          </g>
        </g>
        <path d="M216.64 125.25c-3.41-5.38-11.72-4-17.25-3.35-2.68.73-7.64-.09-7.67-2.28-.28-.79-.81-39.65-.93-40.44h.21c-.41 2.15 3.71 3.47 6.52 2.86 5.84-.71 14.94-2.46 18.49 3.38l.83 39.81z" fill="url(#light_yellow-2)"/>
        <path d="M215.91 85.43c-4-8.92-24.06 1.25-25-6.26.13.88.66 39.59.93 40.42.51 3.47 8 2.26 11 1.72 4.66-.2 11.55-.65 14 3.92z" fill="url(#light_yellow-3)"/>
        <g clip-path="url(#clip-path-3)">
          <path class="cls-1" d="M216.68 125.56c-.09-.34-.83-39.76-.87-40.12h.2c.1.41.83 39.74.87 40.15z"/>
          <g class="cls-4">
            <path class="cls-11" d="M216.68 125.56c-.09-.34-.83-39.76-.87-40.12h.2c.1.41.83 39.74.87 40.15z"/>
            <path class="cls-11" d="M216 85.76l.83 39.8c-.1-.39-.83-39.73-.87-40.13a1.24 1.24 0 010 .33"/>
          </g>
        </g>
        <path d="M152.41 108.06c.55-9.64 11.75-13.19 19.35-16.13 4.32-1.71 8.32-.37 12.36 1.83 11.06 4.79 26.15 6.82 36.62-.36l-.07-.08a8.56 8.56 0 002.94-6.6h.2c-.14 1.06 1.15 39.93.69 40.83h.09A9.27 9.27 0 01219 135l.05.09c-5 2.54-10.69 2.91-16.23 2.84a47 47 0 01-17.91-4.22c-3.63-2-7.09-3.19-11-2.27v.09c-7.94 2.85-19.7 6.35-20.48 16.26h-.19z" fill="url(#linear-gradient-4)"/>
        <path d="M223.71 86.72C223.3 97.11 210 98.17 202 98.05a46.85 46.85 0 01-19.11-4.78c-5.7-3.76-11.9-1.29-17.47 1.28-5.06 2.2-10.56 5.25-12.46 10.75-1.46 2.31 1 39.83.43 42.55 1-10.52 14.07-14.62 22.84-16.78 3.1-.39 5.92 1.27 8.72 2.57a47.12 47.12 0 0026.92 3.64c5.06-.84 11.09-3.06 12.48-8.55a8.71 8.71 0 00.24-2.21z" fill="url(#linear-gradient-5)"/>
        <path d="M188.37 155.89c-.87-6.34-13.17-2.76-17.89-3v.1c-.11 0-.41.06-.48-.07v.1c-2.33-.05-5.92-.19-6.19-3.15L163 110.1h.2c.35 3.15 4.27 2.76 6.6 3v-.1c3.68-.32 7.65-1 11.33-.85 4.4.15 6.57 1.43 6.62 3.92l.83 39.8z" fill="url(#light_yellow-4)"/>
        <path d="M187.64 116.1c-1.88-9.52-21.92 2.22-24.55-6l.83 39.8c1.2 4.7 7.81 2.66 11.33 2.52 4-.3 12.86-1.67 13.22 3.47z" fill="url(#light_yellow-5)"/>
        <path d="M125 138.23c.09-7.61 8-11.71 14.11-14.39 11.86-5.81 22.57 5.84 34.7 5 6.73.26 13.81-1 19.19-5.11l-.07-.07a9.3 9.3 0 003.39-7.14h.2-.1.1l.83 39.77a11.33 11.33 0 01-.1 1.5 8.81 8.81 0 01-3.51 5.79l.06.07c-5.28 4.38-12.52 5.33-19.16 5.17-10.85.9-20-8.51-30.65-6.3-7.37 2.22-17.57 6.62-18 15.46h-.2z" fill="url(#linear-gradient-6)"/>
        <path d="M196.42 116.54c-.61 10.55-14.14 12.65-22.61 12.42-14.42.15-25.35-12.68-39.33-2.77-4.07 2.28-8.4 5.5-9.26 10.36a9.32 9.32 0 00-.12 1.67l.83 39.8c.68-9.79 12.67-14.75 21.15-16 14.45 2.1 25.19 11.17 41.42 4.69 3.92-1.55 8-4.43 8.66-8.88a12 12 0 00.09-1.48z" fill="url(#linear-gradient-7)"/>
        <g clip-path="url(#clip-path-4)">
          <path class="cls-1" d="M136.62 180.8c-.37-.73-.84-39.81-1-40.63h.2c.35.79.84 39.75 1 40.6z"/>
          <g class="cls-4">
            <path class="cls-11" d="M136.62 180.8c-.37-.73-.84-39.8-1-40.63h.2c.36.85.83 39.7 1 40.6z"/>
            <path class="cls-11" d="M135.89 141l.83 39.8c-.37-.84-.84-39.71-1-40.6a2.5 2.5 0 00.14.8"/>
          </g>
        </g>
        <path d="M161.38 186.76c-2.32-5.23-10.71-4.28-15.68-3.72-2.84.86-9 .31-9.08-2.24l-.83-39.8h.19c-.11 2.09 5.66 3.06 8.2 2.2 5.28-.67 13.68-1.72 16.55 3.55.05.24.83 39.8.85 40.06z" fill="url(#light_yellow-6)"/>
        <path d="M161.48 186.76c0-.24-.8-39.84-.85-40-3.51-5.82-12.59-3.83-18.42-3.22-2.7.51-6.34-1-6.32-2.52l.83 39.8c.69 3.51 8 2.45 11.11 1.89 4.56-.25 11.74-.71 13.65 4.1z" fill="url(#light_yellow-7)"/>
        <g class="cls-4">
          <path class="cls-2" d="M119.15 149.17L120 189c-5.2-7.23-3.66-42-4.25-50.73-.41 3.73 2.79 7.18 3.4 10.9z"/>
          <g clip-path="url(#clip-path-5)">
            <path class="cls-25" d="M119.89 189c-5.21-7.23-3.65-42-4.25-50.73h.2c-.38 3.79 2.82 7.17 3.41 10.93l.84 39.8z"/>
            <g class="cls-4">
              <path class="cls-25" d="M119.89 189c-5.21-7.23-3.65-42-4.25-50.73h.2c-.38 3.79 2.82 7.17 3.41 10.93l.84 39.8h-.2zm-4-48.39c.91 7.68-1.48 40.79 4 46.89-.46-7.29.66-41.2-4-46.92z"/>
              <path class="cls-2" d="M119.15 149.17L120 189c-5.2-7.23-3.66-42-4.25-50.73-.4 3.74 2.8 7.21 3.41 10.93"/>
            </g>
          </g>
        </g>
        <path d="M71.32 188.23c.22-4.43 3-9.12 4.55-13.24 10.34-23.87 5-47.24 7.58-70.6.89-9.42 1.66-18.84 4.85-27.7a88.61 88.61 0 0120.25-33.38A100.39 100.39 0 01215.46 18c59 20.69 61.89 57.08 60.84 111.06h-.2c-1.59-56.77-68.54-88.1-121.91-73.15-17.13 5-32.6 14.95-44.95 27.66a87.9 87.9 0 00-19.41 31.53c-3.56 9.27-4.46 19.35-5.35 29.11-2.54 23.09 2.68 45.95-7.2 69.68-1.71 4.75-4.55 9.17-4.93 14.14h-.2z" fill="url(#linear-gradient-8)"/>
        <path d="M275.37 89.23c-.33-50-55.63-78.84-97.44-77.11-29.8.62-58.51 16.14-76.5 39.71C77.93 84 84.81 111.45 81.86 152.21c-.54 12-6.38 22.7-10.16 33.84a8.52 8.52 0 00-.28 2.18l.83 39.8c1.31-8.61 6.74-16.14 8.51-24.73 7.6-42.94-5-79.6 23-113.63 18.79-23.34 48.19-38.22 78.34-37.8 40.47-.53 94.12 28.61 94.09 77.16z" fill="url(#linear-gradient-9)"/>
        <path d="M160.25 216.07c.33-2.36 2.85-4.08 4.75-5.13l-.06-.08c7.77-4.64 27.82-13.85 36-17.59l-.05-.09c.14 0 2.61-1.4 2.75-1.17v-.09c19.82-9 35.61-16.46 51.67-30.2l-.06-.08c21.11-18.51 34.81-46.15 34.72-74.43h.2c-.26 15.29 2.89 47.14-1.82 61.58-11.11 44.83-45.45 67.14-85.92 84v.09c-8.27 3.8-23.33 11.27-31.6 15l.05.09c-1.3.56-2.55 1.55-3.82 2v.08a15 15 0 01-2.11 1.25l.06.08c-1 .57-1.71 1.48-2.59 2l.07.07c-.19.16-.29.44-.55.47l.08.07a3.14 3.14 0 00-.78 1.83h-.2z" fill="url(#light_yellow-12)"/>
        <path d="M286.83 153.65a84.11 84.11 0 004-26.64l-.83-39.8c.2 34.73-20.39 67.33-49.34 85.6-20.05 12.92-44.32 21.88-66.93 33.45-4.6 2.44-10.32 4.39-13.22 8.94-.56.74.82 39.81.65 40.66 1.36-6.92 35.92-19.64 43.93-24.35 37.62-15.87 70.11-37.71 81.74-77.86z" fill="url(#light_yellow-13)"/>
        <path d="M149.52 271.15c-2.15.11-101.43-21.45-103.61-21.73-5.76-1.12-8.42-5.49-8.5-9.33l-.84-39.79h.2c.08 3.75 2.69 8 8.35 9.14l101.4 21.46a12.21 12.21 0 003.86.2c5.33-.4 10.61-4.7 10.14-10.36h.2l.83 39.8a13.54 13.54 0 01-.1 2 8.46 8.46 0 01-3.79 6l.06.07a13 13 0 01-8.2 2.54z" fill="url(#light_yellow-14)"/>
        <path d="M160.62 220.72C161.17 228 153 232.5 146.5 231L45.1 209.53c-5.39-1.06-8.34-5.12-8.43-9.23l.83 39.79c.09 4.11 3 8.18 8.44 9.24l101.39 21.45c5.59 1.24 12.66-1.76 13.93-7.72a11.36 11.36 0 00.19-2.54z" fill="url(#light_yellow-15)"/>
        <path d="M131.49 297.29c-2.15.13-101.43-21.46-103.7-21.75-5-1.06-8.56-4.87-8.65-9.26l-.83-39.8h.2c.09 4.3 3.58 8 8.5 9.07L128.4 257a13.4 13.4 0 005 .08c4.69-.74 9.24-4.59 9.12-9.59h.2l.83 39.8c-.05.39.1 1-.18 1.33h.1a7.51 7.51 0 01-2 4.22l.08.06a12.48 12.48 0 01-10.06 4.39z" fill="url(#light_yellow-16)"/>
        <path d="M142.63 247.51c.08 7-8 11.09-14.25 9.6L27 235.65c-5.08-1.08-8.49-4.93-8.58-9.17l.83 39.8c.09 4.24 3.5 8.09 8.58 9.17 2.25.28 101.54 21.87 103.67 21.74 5.23.24 11-3 11.88-8.52a9 9 0 00.09-1.36z" fill="url(#light_yellow-17)"/>
        <path class="cls-34" d="M130.66 257.49C128.51 257.62 29.23 236 27 235.75c-14.91-3.35-8.26-22.24 5.72-19l101.39 21.46c13.3 2.79 9.89 20.06-3.45 19.28z"/>
        <path class="cls-34" d="M30.37 216.6c2.14-.13 101.43 21.46 103.69 21.74 13.51 2.82 9.32 20-3.4 19-2.13.13-101.42-21.46-103.68-21.74-13.52-2.78-9.32-19.97 3.39-19z"/>
        <path d="M113.16 323.69C111 323.82 11.74 302.23 9.48 302c-5-1.06-8.56-4.87-8.65-9.26L0 252.89h.2c.09 4.3 3.58 8 8.49 9.06l101.4 21.47a13 13 0 004.66.13c4.81-.61 9.6-4.53 9.47-9.65h.2l.83 39.79c0 .39.1 1-.18 1.33h.1c-.82 5.58-6.73 8.91-12.01 8.67z" fill="url(#light_yellow-18)"/>
        <path d="M124.32 273.9c.07 7-8 11.1-14.25 9.62L8.67 262.05C3.6 261 .19 257.13.1 252.89l.83 39.8c.09 4.24 3.5 8.09 8.57 9.16 2.24.28 101.54 21.87 103.66 21.74 5.24.24 11.07-3 11.9-8.54a8.75 8.75 0 00.09-1.35z" fill="url(#light_yellow-19)"/>
        <path class="cls-34" d="M112.33 283.89c-2.14.14-101.42-21.46-103.68-21.74-14.91-3.35-8.26-22.23 5.72-19l101.4 21.46c13.34 2.79 9.87 20.06-3.44 19.28z"/>
        <path class="cls-34" d="M12.08 243c2.12-.13 101.43 21.46 103.67 21.74 13.53 2.83 9.3 20-3.42 19.05-2.12.13-101.42-21.46-103.66-21.74C-4.86 259.22-.64 242 12.08 243z"/>
        <g class="cls-4">
          <path class="cls-3" d="M70.07 289l.83 39.8c-2 10-14.65 15.83-25.05 13.44-9.1-1.92-15.23-8.82-15.39-16.44l-.83-39.8c.37 20.67 36.24 22.71 40.44 3z"/>
          <g clip-path="url(#clip-path-6)">
            <path d="M50.78 342.86c-10.21.3-20.5-7.57-20.42-17.06l-.83-39.8h.2c.49 20.71 36.16 22.46 40.24 3h.2l.83 39.79c-1.72 8.34-10.55 14.03-20.22 14.07z" fill="url(#linear-gradient-11)"/>
            <path d="M50.78 342.86c-10.21.3-20.5-7.57-20.42-17.06l-.83-39.8h.2c.36 20.21 35.72 22.94 40.24 3h.2l.83 39.79c-1.82 8.92-11.64 14.13-20.22 14.07z" fill="url(#linear-gradient-12)"/>
            <path d="M70.07 289c-4.48 20.17-40.22 17.18-40.44-3l.83 39.8c.16 7.62 6.29 14.52 15.39 16.44 9.91 2.24 22.72-2.83 25.05-13.44z" fill="url(#linear-gradient-13)"/>
          </g>
        </g>
        <path class="cls-34" d="M50 303.06c-11.6.41-23.44-9.9-19.78-21.69a3.65 3.65 0 013.53-2.37c1.74.64 35.91 6.33 36 8.64.86 8.97-10.32 15.41-19.75 15.42z"/>
        <path class="cls-34" d="M33.89 279.12c.67 0 32.81 6.94 33.51 7a3 3 0 012.6 3.68c-2.44 8.11-11.34 13.48-20.84 13.15-12-.07-22.38-10.92-18.84-21.55a3.57 3.57 0 013.57-2.28z"/>
        <path class="cls-1" d="M162.6 156.38l-.7.33zM162.6 156.38l-.7.33zM161.03 156.98l.07-.03.14.16-.1.04-.11-.17zM161.21 157l-.15.06z"/>
        <path class="cls-1" transform="rotate(-13.58 157.777 158.222)" d="M157.57 158.07h.27v.2h-.27z"/>
        <path class="cls-1" d="M157.84 158.13l-.26.07zM165.05 154.69c.32-.25.55-.45.8-.67l.13.15-.8.68zM165.91 154.1zM164.69 155l.24-.16.12.15-.24.17zM165 154.87l-.24.17zM162.55 156.29c.34-.18.66-.37 1-.56l.05.09v-.12l.1.17-.11-.05v.08c-.32.2-.64.39-1 .57z"/>
        <path class="cls-1" d="M163.64 155.78c-.33.21-.68.41-1 .6.36-.19.67-.38 1-.6zM127.3 157.3l.04-.02.13.15-.17-.13zM127.42 157.35h-.06zM128.13 156.86l.08.19zm0 0h.06l.08.18zM128.25 156.92h-.08zM150.1 159.16l.27-.02.02.2-.15.01-.09-.2.01.2-.06-.19zM150.38 159.24h-.27zM166.14 153.74c.17-.17.37-.37.53-.55l.15.14-.54.56zM166.75 153.26l-.54.56zM155.24 158.69zM155.24 158.69zM156 158.65a.11.11 0 01-.09-.14c.17-.14.25.13.09.14zM156 158.55zM152.41 159l1.45-.18v.2l-1.46.18zM153.88 158.9l-1.46.18zM109.6 199.62a2.46 2.46 0 01.15-.51l.19.07a2.26 2.26 0 00-.14.47z"/>
        <path class="cls-1" d="M109.7 199.63a3 3 0 01.14-.49 2.75 2.75 0 00-.14.49zM110.05 198.54a5.63 5.63 0 01.36-.51l.16.12a4 4 0 00-.35.5zM110.13 198.59zM109.78 199a3 3 0 01.21-.4l.17.1a2.69 2.69 0 00-.19.38z"/>
        <path class="cls-1" d="M109.88 199.08a2.35 2.35 0 01.19-.39 2.35 2.35 0 00-.19.39zM110.48 197.94l.17-.2.2.06-.21.26-.16-.12zM110.56 198l.22-.26zM167 152.84l.29-.37.16.12c-.12.15-.2.27-.29.37zM167.35 152.53l-.29.37zM129.07 156.63h.08zM129.07 156.63h.08zM167.92 151.52l.06-.11.21.05-.17-.1.06-.11.17.1-.16.27-.17-.1z"/>
        <path class="cls-1" d="M168.16 151.3c0 .09-.1.18-.16.27.06-.09.11-.18.16-.27zM129.95 156.36l.23-.03.02.2-.23.03-.02-.2zM130 156.46h.23zM168.5 150.37l.04-.08h.22l-.07.15-.19-.07zM168.66 150.25l-.06.16zM169.09 148.9h-.1a8.48 8.48 0 00.13-.88h.2c0 .3-.07.6-.13.9z"/>
        <path class="cls-1" d="M169.22 148a6.89 6.89 0 01-.14.91 6.89 6.89 0 00.14-.91z"/>
        <path class="cls-1" d="M145.35 207.27c-7.2-.39-13.92-1.58-20.94-2.36 4.06-18.12 12-1.43 34.26-7v-.1a28 28 0 006.28-2.53l-.05-.08c.35-.17.63-.58 1-.6l-.07-.08a10.17 10.17 0 004.08-6.32 9.43 9.43 0 00.09-1.29l-.82-39.29c-1.14-13.64-21-14-31-10.8-3.42 2.06-3.38 6.39 2.44 6.6 5.72-.33 12.37-2 17.53.66 9.47 6.22-10 8.15-13.82 7.64-28.82-2-22.54-27.43 2.86-29.66 11.63 2.23 23 9.48 35.43 6.18 30.95-8.61 4.11-32.1-18.14-20.69-4.47 5.24 4.32 6.17 8.23 5.16 3.86-.37 11.75-1.64 14.36 1.37 2.75 4.23-2.62 7-7.16 7.26-10 .9-26.58-1.73-27.48-13.55.85-9.92 15.1-15.54 24.41-16.67 13 4.94 33.14 12.16 44.74 1.3 7.18-10.07-5.89-19.58-15.79-18.63-4 .4-14.71.21-14.68 6 3.06 5.58 15.88-1 21.66 2.76 11 6.24-8.14 8.72-12.66 8-17 .66-28.49-17-10.75-25.32 3.63-3.13 20-4.14 17.21-10.68-9-3.76-22.64 4.17-28.08 9C168 72.07 175 82.84 168 85.08c-12.73 3.75-24.62 12.29-24.32 25.18-.46 7.86-13.87 7.74-17.48 11.9-9 6.05-13.55 14.87-7.74 24.23a5.75 5.75 0 01.55 4.72c-3.82 14.11-10.33 37.33-17.85 46.3-3.52 1.94-9 .38-12.64-.38-33.51-4.69-7.17-18.56-6.74-44.83 2.19-28.09-1.27-50.6 6.54-75.51C99.7 34.44 161.61-3.59 215.46 18c59.74 16.85 80.93 85.57 34.84 129.3-23.31 23.41-68.59 40.22-97.79 57.15-2.65 1.68-4.23 2.91-7.16 2.82z"/>
        <path class="cls-1" d="M170.09 186.93c-1 11.23-15.49 12.35-24.36 12.21-8.72-.24-19.22-8.68-21.19 5.69 9.38.08 19.59 5.56 27.91-.49 16.87-10.2 57-27.54 72.2-38 36.49-21.86 70.24-62 38.06-115.44C225.74 1.31 150.24 3.35 116 36.5c-42.32 40.68-29.62 63.88-34.14 115.7-1.6 28.14-25.66 40.36 6.66 44.73 3.41.68 9 2.37 12.57.4 7.74-9.67 13.54-30.72 17.8-46.24a5.63 5.63 0 00-.54-4.65c-5.86-9.39-1.2-18.33 7.77-24.37 3.52-4.09 17.07-4.14 17.44-11.81-.28-13 11.62-21.49 24.39-25.28 7-2.2 0-12.87 10.44-21.54 5.69-5 18.93-12.75 28.23-9 2.77 6.76-13.37 7.59-17.24 10.83-24.93 15 6.54 31.47 24.7 23.18 3.27-1.68 1.48-5.2-1.38-5.83-5.46-2.27-11.36-.79-17.4-.38-3.24-.11-4.09-1.59-4.31-2.44.09-6.16 11.51-5.78 15.8-6.08 9.75-.54 21.88 9.09 14.84 18.77-11.63 10.91-31.81 3.71-44.82-1.26-11.61.61-33.81 12.89-19.81 24.84 6.49 4.9 25.48 9.29 30.55 1 .6-3.55-2.52-4.62-6.45-4.75-5.85-.4-22.4 4.09-16.74-4.78 10.34-4.89 29.09-4.62 32 8.2.71 10.71-13.75 13.7-22.55 13.27-8.7.27-16.59-4.54-24.69-6.66-9.49-1.54-28.33 9.64-23.38 19.26 4.57 10.36 18.48 11.2 29 9.21 2.18-.42 6.25-1.76 5.89-4.06-4-6.38-13.55-3.33-20-3.18-5.7-.09-6.12-4.69-2.49-6.79 10-3.3 30.15-2.77 31.14 10.9a4.34 4.34 0 000-.51z"/>
        <path class="cls-1" d="M113.64 192.81l.14-.28.18.09-.14.27-.18-.08zM113.87 192.58l-.14.27zM116.29 187.26l.03-.08h.22l-.07.16-.18-.08z"/>
        <path class="cls-1" d="M116.45 187.14c0 .06 0 .11-.07.16s.05-.1.07-.16zM115.43 189.39l-.11.24zM115.43 189.39l-.11.24zM114.29 191.76zM114.29 191.76zM113.19 193.68l.03-.08.18.1-.21-.02zM113.31 193.65v.07zM115.91 188.35v.09zM115.91 188.35v.09zM114.93 190.44c0 .1-.1.19-.14.29z"/>
        <path class="cls-1" d="M114.93 190.44c0 .1-.1.19-.14.29zM111.47 196.8zM111.47 196.8zM112.71 194.54a1.34 1.34 0 00.18.07h-.1.08zM112.82 194.55zM125.93 158.52l.01-.02.16.12-.17-.1zM126 158.56zM112.44 195.23l-.13.22zM112.44 195.23l-.13.22zM110.7 197.68l.2-.26.16.13-.21.26zM111 197.49l-.2.25z"/>
        <path class="cls-1" transform="rotate(-70.99 119.767 178.764)" d="M119.62 178.67h.31v.2h-.31z"/>
        <path class="cls-1" d="M119.83 178.62c0 .1-.07.19-.1.29.03-.1.06-.19.1-.29zM117 185.85c-.06.12-.11.25-.16.37z"/>
        <path class="cls-1" d="M117 185.85c-.06.12-.11.25-.16.37zM125.24 159.73c.09-.2.18-.4.28-.59l.18.09a4.35 4.35 0 00-.27.58z"/>
        <path class="cls-1" d="M125.61 159.19a3.83 3.83 0 00-.27.58 3.83 3.83 0 01.27-.58zM120.16 177.3a.67.67 0 01.06-.15l.17.1v.11zM120.29 177.22v.1zM120.91 174.74l.03-.11.2.03-.03.13-.2-.05z"/>
        <path class="cls-1" d="M121.06 174.57v.19c0 .06-.06-.12 0-.19zM120.53 176.1h.2zm0 0l.06-.2.19.06v.1h-.21l.19.06zM120.69 175.92l-.06.21z"/>
        <path class="cls-1" transform="rotate(-70.23 119.384 179.875)" d="M119.24 179.77h.29v.2h-.29z"/>
        <path class="cls-1" d="M119.44 179.74c0 .1-.07.19-.1.28.03-.1.06-.19.1-.28z"/>
        <path class="cls-1" transform="rotate(-1.11 118.506 182.854)" d="M118.28 182.44h.1v.1h-.1z"/>
        <path class="cls-1" d="M118.94 181.09v.08zM118.94 181.09v.08zM117.48 184.76l-.09.21zM117.48 184.76l-.09.21z"/>
        <path d="M124.52 204.93c-28-4-8-3.79-1.18-39.06 1.13-2.82 1.14-6.54 3.78-8.44 4.57-3 9.43 1 14.33 1.43 9.59 1.21 26.56.21 27.71-11.73h.2c0 .56.76 37.76.83 39.78-1 10.7-13.64 12.15-22.57 12.36-10.34.85-19.99-9.92-23.1 5.66z" fill="url(#light_yellow-20)"/>
        <path d="M169.26 147.13c-1.43 12.32-18.19 12.93-27.82 11.82-5.11-.46-11.81-5.41-15.69 0-3.68 9.27-4.94 19.43-9.37 28.46-1.37 4.67-5.51 8.54-6.63 13 3.47 3.68 9.82 3.31 14.79 4.42.93-2.07 1.26-6.58 3.86-7.78 5.21-2.56 12.29 2.61 17.33 2.09 10.3.58 26.7-2.38 24.28-16q-.37-18.01-.75-36.01z" fill="url(#light_yellow-21)"/>
        <path class="cls-43" d="M114.71 190.68l.18.08-.47.95-.23.01.52-1.04z"/>
        <path class="cls-43" d="M114.33 191.67v.09c.16-.34.33-.69.51-1-.2.24-.35.6-.51.91zM115.82 188.31l.47-1.05.18.08c-.15.36-.31.7-.47 1zM115.91 188.35zM114.85 190.39l.34-.73.19.08-.35.73zm.37-.78l.18.08-.19-.06.18.08h-.11z"/>
        <path class="cls-43" d="M115.28 189.7c-.11.25-.23.49-.34.73l.38-.8zM115.34 189.34l.4-.85.21.02-.43.92-.18-.09z"/>
        <path class="cls-43" d="M115.83 188.53c-.13.29-.27.57-.4.86l.44-.95zM117.39 184.72l.44-1.09h.1l-.08-.07.1-.26.19.07-.11.26h-.1.09l-.45 1.09zm.65-1.35l-.08-.05.3-.76.19.08-.3.76z"/>
        <path class="cls-43" d="M118.05 183.37l-.57 1.39q.47-1.11.9-2.22zM118.84 181.05c.14-.36.27-.72.4-1.07l.19.06c-.13.36-.26.72-.4 1.08zM118.94 181.09l.4-1.08zM116.36 187.1l.41-.92.18.08-.34.78-.1-.02.09.04-.06.12-.18-.08z"/>
        <path class="cls-43" d="M116.52 187l-.07.14c.14-.3.27-.61.41-.92-.12.26-.23.52-.34.78zM116.92 185.81c.13-.29.26-.59.38-.88l.18.07c-.12.3-.25.6-.37.89zM117 185.85l.37-.88zM118.29 182.5l.13-.34.19.06-.19-.07.34-.88.23-.03-.52 1.33-.18-.07z"/>
        <path class="cls-43" d="M118.85 181.31c-.15.41-.31.82-.47 1.23.18-.46.36-.92.53-1.37zM109.75 199.1l.02-.04.2.06-.22-.02zM109.84 199.14v-.06z"/>
        <path class="cls-34" d="M149.14 231.36c-2.77.33-98.32-20.86-104.06-21.73-4.68-.92-8-4.28-8.46-8.56-1-7.13 6.41-10.2 12.35-11.51 15-7.81 16.25-48.82 18.18-55.51 3.74-49.21-3.3-73.05 43.12-110.72 69.45-57.58 208.23-1.85 174.82 93.74-10.2 37.5-52.09 63.73-80.67 74.69-.92.42-9.55 4.4-30.63 14.59-8.15 3.69-13.64 7.6-13.35 9.71 1.86 7.57-2.54 15.55-11.3 15.3zm-18.45-74.82c-8.35 1-7.17 13.79-10.11 20-2.06 8.6-7.42 16.29-10.7 24 10.27 6 23.78 4.75 35.47 6.6 2.86.09 4.44-1.11 7.05-2.82 1.33-.82 18.63-10.19 27-14.23 29.26-14.28 49.77-23.53 70.75-42.89 46-43.62 24.86-112.17-34.76-129C161.63-3.33 99.88 34.55 88.49 76.75c-10.95 30.32 1.08 71.39-13.85 101.68-2 5.8-4.51 7.9-2.24 12.46 5.3 5 16.45 6 24 7.25a8.94 8.94 0 004.68-.9c1.32-.79 9.73-17.36 11.27-23.43.67-2.63 5.13-18.08 6.49-22.75.76-5.61-5.2-10.84-2.75-16.37 2.71-9.79 12.72-15.33 23.33-18.84 7.31-2.78 1.19-13.69 11.3-21.67 4.19-3.94 10-7.06 17.24-9.29 2.28-.71 3.71-2.54 3.48-4.46-3.63-26.75 51.43-34 31.61-20.27-8.57 3.52-17.85 4.24-22.21 13.84-2.44 11.18 10.68 16.69 20.7 16.34 4.17-.58 13.35.72 14.28-4.87-4.5-6.45-13.7-3.27-20.53-3.12-4.22-.4-5-2.12-4.13-4.53 3.12-3.91 11.09-4.08 15.63-4.19 9.83-.56 22 9.21 14.91 18.94-8.71 8.5-27 6.24-37.67 1.38-2.56-1.18-5.08-2.64-7.66-2.62-11.55 1-33.11 12.86-19.28 24.67 4.3 5 33.65 10 29.8-1.78-3.84-3.64-13.25-.95-18.07-.95-22.59-4.6 24.18-18.27 27.64 2.41.71 10.78-13.82 13.82-22.65 13.38-8.76.26-16.58-4.53-24.7-6.66-9.51-1.49-28.14 9.56-23.28 19.13 4.54 10.32 18.53 11.11 28.89 9.14 2.32-.44 6.15-1.78 5.81-3.95-3-5.09-10.84-4.05-16.32-3.38-2.82.91-8.47-.18-8.42-2.34-.33-6.95 9.45-5.39 14.42-6 35.3 3 18.2 34.26-19.52 21.54z"/>
        <path class="cls-34" d="M286.45 66.15C252.21-24.12 111.66-19 76.05 65.43c-12.74 36.31-3.61 58.26-14.54 102.51-3.13 10.18-6 22.15-18.87 23.7-9.09 3.91-7.42 16 2.46 17.89l65.06 13.77c23.29 3 53 19.33 50.19-7.23-.07-3.73 11.74-9 13.4-9.81 31.78-15.29 29.12-13.87 44.37-21 37.2-15.62 85.38-60.71 68.33-119.11zM275 98.05c-10.83 66.55-75 77.11-122.55 106.29-8.33 6.08-18.54.55-27.92.49-3.73-1-15.09-1-14.73-5.62a55.67 55.67 0 003.25-5.14 101.34 101.34 0 009.53-25.34c1.71-4 1.4-10 6-11.93 2.84-1 5.74.41 8.47 1.13 29.17 8.59 48-18.38 14.59-22.77-5.06.12-9.26-.13-13.53 1.58-3.63 2.1-3.21 6.7 2.49 6.79 6.48-.15 16.06-3.2 20 3.18.36 2.3-3.71 3.64-5.89 4.06-10.52 2-24.43 1.15-29-9.21-4.95-9.62 13.89-20.79 23.38-19.26 8.1 2.12 16 6.93 24.69 6.66 8.8.43 23.26-2.56 22.55-13.27-2.9-12.83-21.63-13.09-32-8.21-2.64 2-.72 5.44 2.12 5.45 3.94.76 8.51-.87 14.62-.66 3.93.13 7 1.2 6.45 4.75-2.85 6.36-14.58 4.39-20.51 3.44-28-7.1-9.9-27.91 9.75-29.23 13 5 33.18 12.17 44.82 1.26 7-9.68-5.09-19.31-14.84-18.77-4.23.23-15.75 0-15.8 6.08.22.85 1.07 2.33 4.31 2.44 6.89-.22 16.29-3.26 20.61 3.19-1.1 6.06-11.45 4.51-15.83 5-18 .38-27.71-17.3-10.7-25.13 5.32-3.51 14-3.13 17.7-8.61-.51-9.8-26.93 3.47-28.69 6.77C167.9 72.11 174.91 82.81 168 85c-7.22 2.22-13 5.34-17.2 9.27-4.79 4.51-7.51 10.47-7.19 16 0 9.09-23.27 7.33-27.41 24.46-2.45 5.46 3.58 10.84 2.74 16.37-4.22 15.44-10.15 36.7-17.8 46.24-5 2.65-31.14-2.46-29.67-9.4 14.29-33.75 10.29-50.05 12.13-83.53 1.3-47.63 39-92.29 100.73-92.27 44.59.22 97.89 37.16 90.67 85.91z"/>
        <path class="cls-43" d="M110.56 198l-.07.09.07-.09zM110.12 198.61a.56.56 0 01-.05.08l.06-.1zM119.72 178.92l-.28.81c.09-.27.19-.55.29-.82z"/>
      </g>
    </g>
  </g>
</svg>
