<svg xmlns="http://www.w3.org/2000/svg"
  xmlns:xlink="http://www.w3.org/1999/xlink" viewBox="0 0 141.4 81.25">
  <defs>
    <style>.cls-1{filter:url(#luminosity-noclip-2);}.cls-2{mask:url(#mask);}.cls-3{fill:#000;}.cls-4{mask:url(#mask-2);}.cls-5{fill:#fcc921;}.cls-6{fill:#ccc;}.cls-7{filter:url(#luminosity-noclip);}</style>
    <filter id="luminosity-noclip" x="0" y="-2" width="143.4" height="84.25" filterUnits="userSpaceOnUse" color-interpolation-filters="sRGB">
      <feFlood flood-color="#fff" result="bg"/>
      <feBlend in="SourceGraphic" in2="bg"/>
    </filter>
    <mask id="mask" x="0" y="-2" width="143.4" height="84.25" maskUnits="userSpaceOnUse">
      <g class="cls-7">
        <path d="M113.82,59.93h0l.09-.13Z"/>
        <path d="M87.63,51.57a2.29,2.29,0,0,1,.58-.24A4.48,4.48,0,0,0,87.63,51.57Z"/>
        <path d="M113.91,59.79a3.4,3.4,0,0,0,.36-1.2,1.9,1.9,0,0,1,0,.4,2.55,2.55,0,0,1-.24.67Z"/>
        <path d="M140.6,29.79a24.31,24.31,0,0,0-.32-13.37,23.71,23.71,0,0,0-5.85-9.37A25,25,0,0,0,123.54.86,24.62,24.62,0,0,0,110.87.78a23.88,23.88,0,0,0-10.32,6,26.17,26.17,0,0,0-7.1,11.34,33.86,33.86,0,0,0-1.13,8.48c-.21,3.79.17,3.91,0,9.61,0,1.55-.31,4-.85,9a33.42,33.42,0,0,1-1.18,4.27,2.08,2.08,0,0,1-.45.83,2.67,2.67,0,0,1-1.09.8l-.58.23a4.48,4.48,0,0,0-.58.24,2.53,2.53,0,0,0-1,1,2.24,2.24,0,0,0-.24.67,2.53,2.53,0,0,0,2,3L111.22,61a2.55,2.55,0,0,0,2.6-1l.09-.14a3.4,3.4,0,0,0,.36-1.2v0a13,13,0,0,0-.16-1.64c-.06-1,2.5-2.47,2.86-2.69,4.72-3,6.64-4.12,6.64-4.12,2.08-1.26,2.37-1.42,3-1.8a32.75,32.75,0,0,0,9.25-8.1A27.52,27.52,0,0,0,140.6,29.79ZM133.25,38a30.45,30.45,0,0,1-5.45,5.26A87.27,87.27,0,0,1,118,49.93c-1.8,1.13-5.56,3.77-5.83,4a7.84,7.84,0,0,0-.79.79c-.24.23-6.9-.52-8.17-1-.18-.07-.51-.19-.6-.47a.86.86,0,0,1,.2-.7,21.75,21.75,0,0,0,2-6.46,24.21,24.21,0,0,1,.88-4.78.82.82,0,0,1,.35-.44c.43-.21,1,.16,1.31.33a13.89,13.89,0,0,0,2.77,1.2,5.39,5.39,0,0,0,3.29,0,2.83,2.83,0,0,0,1.43-.92,2.68,2.68,0,0,0,.44-2.14,2.87,2.87,0,0,0-1-1.45,6.23,6.23,0,0,0-3-1.4,5.49,5.49,0,0,0-3.09.11,1.18,1.18,0,0,0-.33.28,1,1,0,0,0-.21.58c.07.5,1.17.81,2,.83a10,10,0,0,1,1.18-.06,2.4,2.4,0,0,1,1.53.66s.7.76.47,1.29-1,.54-1.41.57a5.83,5.83,0,0,1-4.88-1.93,4.66,4.66,0,0,1-1.28-3.53s.22-1.87,2.88-3.58a1.12,1.12,0,0,1,.56-.2,1.4,1.4,0,0,1,.88.26,3.62,3.62,0,0,1,.92.79c1,1.26,3.59,1.85,3.82,1.89a4.58,4.58,0,0,0,3.26-.09,3,3,0,0,0,1.6-1.91,3,3,0,0,0-.68-2.43A4.36,4.36,0,0,0,117.2,29a10.24,10.24,0,0,0-4-1.06,1.51,1.51,0,0,0-.64.07c-.07,0-.88.28-.91.78s.59.79.75.88a2.65,2.65,0,0,0,1.24.27c2.27.14,2.67.33,2.9.48a1.46,1.46,0,0,1,.76,1,1.32,1.32,0,0,1-.49,1.09c-.7.59-1.84.25-2.85,0a5.86,5.86,0,0,1-3.09-1.76,4,4,0,0,1-1.11-2.31c-.22-2.35,2.18-3.92,3.12-4.54a1.62,1.62,0,0,1,.84-.3c.39,0,.82.14,1.69.92.66.59,1,1,1.25,1.27a6.69,6.69,0,0,0,3.3,1.69,5.05,5.05,0,0,0,3.59.09,2.92,2.92,0,0,0,1.45-1.26,3,3,0,0,0,.17-2.29c-.26-.73-.77-1.09-1.62-1.69a9,9,0,0,0-3.76-1.46,3.08,3.08,0,0,0-1.7,0c-.11,0-1,.33-1,.75s.58.61,1.06.81a11.38,11.38,0,0,0,3.08.74,2.81,2.81,0,0,1,1.13.33,1.48,1.48,0,0,1,.77.94,1.4,1.4,0,0,1-.45,1.08c-1,.92-3.26-.08-3.55-.21-.78-.35-3.18-1.41-3.41-3.71a4.24,4.24,0,0,1,1.2-3.22,5.2,5.2,0,0,1,3.18-1.4,3.92,3.92,0,0,0,1.89-.34c.18-.09.91-.48.85-.93s-.46-.55-.77-.63a1.64,1.64,0,0,0-1,.16c-1.31.61-1.61.16-3.44.92A5.49,5.49,0,0,0,115,17.87a3.44,3.44,0,0,0-.75,1.91,3.67,3.67,0,0,1,0,.66,2.44,2.44,0,0,1-1,1.41c-.48.36-.69.27-1.4.6a6.2,6.2,0,0,0-1.43,1,5.72,5.72,0,0,0-2,2.64,3.94,3.94,0,0,0-.12,2.56,1.29,1.29,0,0,1,.13.78c-.08.34-.34.58-.83.92a10.19,10.19,0,0,1-1.41.83,4.89,4.89,0,0,0-2.07,2.4,5.85,5.85,0,0,0-.25,3.41c.11.54.2.62.28,1.19a6.64,6.64,0,0,1-.16,2.52c-.52,2.31-1,4.75-1.1,5.6a29.34,29.34,0,0,1-2.22,6.27,1.48,1.48,0,0,1-.91.25,13.29,13.29,0,0,1-4.86-1.16,1.43,1.43,0,0,1-.71-.5,1.36,1.36,0,0,1-.24-.79c0-1.56,1.8-4.81,1.87-9.47.1-6.37-.37-8.08-.23-12.56A32.8,32.8,0,0,1,96.34,21,23.74,23.74,0,0,1,102,10.2a20.66,20.66,0,0,1,11.74-6.76,20,20,0,0,1,10.15,1,21.07,21.07,0,0,1,10.94,8.19,20.73,20.73,0,0,1,3.33,12.26A22.73,22.73,0,0,1,133.25,38Z"/>
        <path d="M107.52,68l-22.84-4.7a2.56,2.56,0,0,1-2-3h0a2.55,2.55,0,0,1,3-2L108.54,63a2.55,2.55,0,0,1,2,3h0A2.55,2.55,0,0,1,107.52,68Z"/>
        <path d="M103.78,75.09,80.94,70.38a2.55,2.55,0,0,1-2-3h0a2.55,2.55,0,0,1,3-2l22.84,4.71a2.55,2.55,0,0,1,2,3h0A2.55,2.55,0,0,1,103.78,75.09Z"/>
        <path d="M89.54,80.15h0A4.57,4.57,0,0,1,86,74.76h0a.8.8,0,0,1,.94-.61l7.38,1.52a.79.79,0,0,1,.62.93h0A4.57,4.57,0,0,1,89.54,80.15Z"/>
        <path d="M142.19,15.8a26,26,0,0,0-6.35-10.17,27,27,0,0,0-11.78-6.7A27.25,27.25,0,0,0,117-2a24.69,24.69,0,0,0-17.8,7.36,28.43,28.43,0,0,0-7.65,12.23,36.11,36.11,0,0,0-1.21,9,37.24,37.24,0,0,0,0,4.24c0,1.23.12,2.62,0,5.42,0,1.49-.32,4.08-.83,8.72a40.31,40.31,0,0,1-1.11,3.95s0,.07,0,.08c-.21.23-.21.23-.39.3l-.53.21,0,0a4.88,4.88,0,0,0-.81.36h0a4.53,4.53,0,0,0-1.76,1.82,4.76,4.76,0,0,0-.42,1.2,4.49,4.49,0,0,0,.65,3.4,4.57,4.57,0,0,0-4.36,3.62,4.52,4.52,0,0,0,.66,3.41l0,.06a4.54,4.54,0,0,0-.91,9l4.06.84A2.71,2.71,0,0,0,84,74.36a6.57,6.57,0,0,0,5.11,7.75,6.41,6.41,0,0,0,1.31.14A6.6,6.6,0,0,0,96.89,77a2.76,2.76,0,0,0-.06-1.31L103.37,77a4.05,4.05,0,0,0,.92.1,4.58,4.58,0,0,0,4.45-3.63,4.53,4.53,0,0,0-.66-3.41l0-.06a4.54,4.54,0,0,0,3.8-7,4.53,4.53,0,0,0,2.85-1.09h.25l.56-.89.11-.18,0,0h0l0,0h0v0h0a1.06,1.06,0,0,0,.1-.17,4.48,4.48,0,0,0,.43-1.19,2.48,2.48,0,0,0,0-.27,2.86,2.86,0,0,0,.05-.32v-.2a4.55,4.55,0,0,0-.07-1.06c0-.09,0-.18,0-.29A10.71,10.71,0,0,1,117.91,56l.13-.08c4.63-2.92,6.57-4.08,6.6-4.1l2.15-1.29.86-.52a35.17,35.17,0,0,0,9.78-8.6,29.8,29.8,0,0,0,5.12-11.18A26.39,26.39,0,0,0,142.19,15.8Z"/>
        <path d="M138.14,24.9A22.66,22.66,0,0,1,133.25,38a30.45,30.45,0,0,1-5.45,5.26A87.27,87.27,0,0,1,118,49.93c-1.81,1.13-5.57,3.77-5.83,4a6.85,6.85,0,0,0-.79.79c-.23.23-6.91-.52-8.18-1-.17-.07-.5-.19-.59-.47a.93.93,0,0,1,.19-.7,21.15,21.15,0,0,0,2-6.46,23.46,23.46,0,0,1,.88-4.78.79.79,0,0,1,.35-.44c.43-.21,1,.15,1.31.33a13.89,13.89,0,0,0,2.77,1.2,5.44,5.44,0,0,0,3.28,0,2.93,2.93,0,0,0,1.44-.92,2.64,2.64,0,0,0,.44-2.14,3,3,0,0,0-1-1.46,6.21,6.21,0,0,0-3-1.39,5.5,5.5,0,0,0-3.09.11,1.18,1.18,0,0,0-.33.28.88.88,0,0,0-.22.58c.08.49,1.18.8,2.06.83a8.35,8.35,0,0,1,1.18-.07,2.46,2.46,0,0,1,1.53.66c0,.06.7.77.47,1.3s-1,.54-1.42.57a5.88,5.88,0,0,1-4.88-1.93,4.75,4.75,0,0,1-1.28-3.54s.23-1.86,2.89-3.57a1.25,1.25,0,0,1,.56-.21,1.35,1.35,0,0,1,.88.27,3.12,3.12,0,0,1,.91.79c1,1.26,3.61,1.84,3.83,1.89a4.55,4.55,0,0,0,3.25-.09,3,3,0,0,0,1.6-1.92,2.94,2.94,0,0,0-.67-2.42A4.23,4.23,0,0,0,117.2,29a10,10,0,0,0-4-1.06,1.64,1.64,0,0,0-.64.06c-.07,0-.88.29-.91.79s.6.78.76.87a2.49,2.49,0,0,0,1.23.28c2.27.13,2.67.33,2.9.48a1.49,1.49,0,0,1,.76,1,1.33,1.33,0,0,1-.49,1.09c-.7.59-1.85.25-2.85,0a5.79,5.79,0,0,1-3.1-1.76,4.07,4.07,0,0,1-1.1-2.3c-.23-2.35,2.18-3.92,3.12-4.54a1.68,1.68,0,0,1,.84-.31c.39,0,.82.15,1.7.93a15.74,15.74,0,0,1,1.23,1.27A6.75,6.75,0,0,0,120,27.41a5.17,5.17,0,0,0,3.59.1,3.17,3.17,0,0,0,1.45-1.27,3,3,0,0,0,.17-2.29c-.26-.73-.76-1.09-1.62-1.68a8.74,8.74,0,0,0-3.76-1.47,3,3,0,0,0-1.7,0c-.11,0-1,.34-1,.76s.58.6,1,.81a11.65,11.65,0,0,0,3.09.74,2.72,2.72,0,0,1,1.12.33,1.47,1.47,0,0,1,.78.94,1.39,1.39,0,0,1-.45,1.07c-1,.93-3.26-.07-3.55-.2-.78-.35-3.18-1.41-3.41-3.71a4.24,4.24,0,0,1,1.2-3.22,5.18,5.18,0,0,1,3.18-1.4,4.07,4.07,0,0,0,1.89-.33c.18-.11.91-.49.85-.95s-.46-.55-.77-.62a1.62,1.62,0,0,0-1,.16c-1.3.61-1.6.16-3.43.91A5.5,5.5,0,0,0,115,17.87a3.34,3.34,0,0,0-.75,1.9,3.61,3.61,0,0,1,0,.66,2.44,2.44,0,0,1-1,1.42c-.48.36-.69.26-1.4.61a5.9,5.9,0,0,0-1.43,1,5.61,5.61,0,0,0-2,2.64,3.94,3.94,0,0,0-.13,2.56,1.22,1.22,0,0,1,.13.78c-.07.34-.33.58-.82.92a13.28,13.28,0,0,1-1.41.83,4.89,4.89,0,0,0-2.07,2.4,5.85,5.85,0,0,0-.25,3.41c.1.54.2.62.28,1.18a6.81,6.81,0,0,1-.16,2.52c-.52,2.32-1,4.76-1.09,5.61a29.7,29.7,0,0,1-2.23,6.26,1.54,1.54,0,0,1-.92.26,13.48,13.48,0,0,1-4.85-1.16,1.46,1.46,0,0,1-.72-.51,1.38,1.38,0,0,1-.23-.78c-.06-1.56,1.8-4.81,1.87-9.47.09-6.37-.38-8.09-.23-12.57a32.76,32.76,0,0,1,.72-7.3A24,24,0,0,1,102,10.19a20.79,20.79,0,0,1,11.74-6.75,20.26,20.26,0,0,1,10.16,1,21,21,0,0,1,10.94,8.2A20.73,20.73,0,0,1,138.14,24.9Z"/>
      </g>
    </mask>
    <filter id="luminosity-noclip-2" x="75.73" y="0" width="65.67" height="81.25" filterUnits="userSpaceOnUse" color-interpolation-filters="sRGB">
      <feFlood flood-color="#fff" result="bg"/>
      <feBlend in="SourceGraphic" in2="bg"/>
    </filter>
    <mask id="mask-2" x="75.73" y="0" width="65.67" height="81.25" maskUnits="userSpaceOnUse">
      <path class="cls-1" d="M75.73,78.82V68.1s4-1.36,2.93-2.51a10.1,10.1,0,0,1-2.93-7.18v-2.8A10.38,10.38,0,0,1,86.07,45.25h.34A10.35,10.35,0,0,1,96.49,55.63v5.44h-3l.15.15a10.38,10.38,0,0,1-7.48,17.6Z"/>
    </mask>
  </defs>
  <g id="Layer_2" data-name="Layer 2">
    <g id="Drawing">
      <g class="cls-2">
        <path class="cls-3" d="M16.79,36.38a8.08,8.08,0,0,1-2.46,5.9,8.14,8.14,0,0,1-5.9,2.46H0V15.84H8.43a8.07,8.07,0,0,1,5.9,2.46,8.07,8.07,0,0,1,2.46,5.9ZM10.07,24.22a1.67,1.67,0,0,0-1.66-1.66H6.72V38H8.41a1.69,1.69,0,0,0,1.66-1.69Z"/>
        <path class="cls-3" d="M24.63,22.56V28h6.72v6.72H24.63V38h8.06v6.72H17.91V15.84H32.69v6.72Z"/>
        <path class="cls-3" d="M42.45,15.16a8.35,8.35,0,0,1,8.08,8.38V27h-6.7V23.54a1.67,1.67,0,0,0-1.69-1.66,1.57,1.57,0,0,0-1,.37.46.46,0,0,0-.12.12h0l-.1.12h0l-.07.12v0h0a.88.88,0,0,0-.07.12s0,0,0,0a.88.88,0,0,0-.07.12l0,.07,0,.09,0,.09,0,.08a.23.23,0,0,1,0,.09v3a1.63,1.63,0,0,0,.49,1.2,1.66,1.66,0,0,0,1.17.47l.31,0a8.35,8.35,0,0,1,8.08,8.38,8.36,8.36,0,0,1-8.39,8.39H33.76V38h8.38a1.64,1.64,0,0,0,1.2-.5,1.6,1.6,0,0,0,.49-1.17,1.65,1.65,0,0,0-.49-1.19,1.63,1.63,0,0,0-1.2-.49h-.33a8.43,8.43,0,0,1-8.05-8.36V23.52a8.4,8.4,0,0,1,8.36-8.36Z"/>
        <path class="cls-3" d="M57.76,44.76H51V15.84h6.72Z"/>
        <path class="cls-3" d="M67.8,15.14a8,8,0,0,1,5.71,2.55,8.14,8.14,0,0,1,2.37,5.85V27H69.16V23.54a1.65,1.65,0,0,0-.49-1.19,1.59,1.59,0,0,0-1.17-.49,1.67,1.67,0,0,0-1.08.37.34.34,0,0,0-.12.12l-.12.12-.09.14v0l-.07.09,0,0s0,.09,0,.14,0,0,0,.07l0,.07,0,.09c0,.06,0,.09,0,.07v.12c0,.05,0,.06,0,.05v13.7a1.67,1.67,0,0,0,1.69,1.68h1.66V36.07H67.57V29.35h8.31V45.09l-8.08.37h-.35a8.4,8.4,0,0,1-8.36-8.38V23.5a8.38,8.38,0,0,1,8.36-8.36Z"/>
        <path class="cls-3" d="M93.91,15.86V44.71h-6.7V37.57L83.84,29.7v15h-6.7V15.86h6.7V16l3.37,7.86v-8Z"/>
      </g>
      <g class="cls-4">
        <path class="cls-5" d="M111.34,56.72c-.15,0-17.27-2.85-18-3.86-.19-.29-.39-.72-.37-2.47a9.72,9.72,0,0,1,.62-2.88,23.06,23.06,0,0,0,1.25-6.64c0-3.23,0-5.26-.14-7s-.16-3.31-.09-5.54a34.14,34.14,0,0,1,.75-7.5,24.89,24.89,0,0,1,5.88-11.27,21.7,21.7,0,0,1,12.3-7.06,20.34,20.34,0,0,1,3.31-.27,22.3,22.3,0,0,1,7.34,1.31,21.85,21.85,0,0,1,11.45,8.6,21.37,21.37,0,0,1,3.5,12.84,23.42,23.42,0,0,1-5.1,13.7,31.14,31.14,0,0,1-5.6,5.42,87.47,87.47,0,0,1-9.86,6.72c-1.82,1.14-5.46,3.7-5.73,3.92a5.78,5.78,0,0,0-.31.87,1.89,1.89,0,0,1-.39.83l-.29.32Z"/>
        <path class="cls-3" d="M113.82,59.93h0l.09-.13Z"/>
        <path class="cls-3" d="M87.63,51.57a2.29,2.29,0,0,1,.58-.24A4.48,4.48,0,0,0,87.63,51.57Z"/>
        <path class="cls-3" d="M113.91,59.79a3.4,3.4,0,0,0,.36-1.2,1.9,1.9,0,0,1,0,.4,2.55,2.55,0,0,1-.24.67Z"/>
        <path class="cls-3" d="M140.6,29.79a24.31,24.31,0,0,0-.32-13.37,23.71,23.71,0,0,0-5.85-9.37A25,25,0,0,0,123.54.86,24.62,24.62,0,0,0,110.87.78a23.88,23.88,0,0,0-10.32,6,26.17,26.17,0,0,0-7.1,11.34,33.86,33.86,0,0,0-1.13,8.48c-.21,3.79.17,3.91,0,9.61,0,1.55-.31,4-.85,9a33.42,33.42,0,0,1-1.18,4.27,2.08,2.08,0,0,1-.45.83,2.67,2.67,0,0,1-1.09.8l-.58.23a4.48,4.48,0,0,0-.58.24,2.53,2.53,0,0,0-1,1,2.24,2.24,0,0,0-.24.67,2.53,2.53,0,0,0,2,3L111.22,61a2.55,2.55,0,0,0,2.6-1l.09-.14a3.4,3.4,0,0,0,.36-1.2v0a13,13,0,0,0-.16-1.64c-.06-1,2.5-2.47,2.86-2.69,4.72-3,6.64-4.12,6.64-4.12,2.08-1.26,2.37-1.42,3-1.8a32.75,32.75,0,0,0,9.25-8.1A27.52,27.52,0,0,0,140.6,29.79ZM133.25,38a30.45,30.45,0,0,1-5.45,5.26A87.27,87.27,0,0,1,118,49.93c-1.8,1.13-5.56,3.77-5.83,4a7.84,7.84,0,0,0-.79.79c-.24.23-6.9-.52-8.17-1-.18-.07-.51-.19-.6-.47a.86.86,0,0,1,.2-.7,21.75,21.75,0,0,0,2-6.46,24.21,24.21,0,0,1,.88-4.78.82.82,0,0,1,.35-.44c.43-.21,1,.16,1.31.33a13.89,13.89,0,0,0,2.77,1.2,5.39,5.39,0,0,0,3.29,0,2.83,2.83,0,0,0,1.43-.92,2.67,2.67,0,0,0,.5-1.87,3.56,3.56,0,0,0-1.8-2.27,7.78,7.78,0,0,0-2.51-.9,5.92,5.92,0,0,0-2.18-.06,1.74,1.74,0,0,0-.85.38A.7.7,0,0,0,108,38a2.59,2.59,0,0,0,1.13.36,17.09,17.09,0,0,1,2.48.11c.64.18,1.71,1.09,1.32,1.87a1,1,0,0,1-.73.42,5.92,5.92,0,0,1-3.15-.21,5.71,5.71,0,0,1-3.55-3.64,3.79,3.79,0,0,1,.8-3.37,7,7,0,0,1,1.39-1.33,2.45,2.45,0,0,1,1.24-.58,1.85,1.85,0,0,1,1.24.58c.32.28.59.61.91.89a7.73,7.73,0,0,0,3.45,1.47,7.51,7.51,0,0,0,1.7.25,3.15,3.15,0,0,0,3.07-2.26c.4-1.84-1.2-3.16-2.7-3.79A10.88,10.88,0,0,0,114.1,28a2.74,2.74,0,0,0-2,.19.75.75,0,0,0-.39.64.79.79,0,0,0,.37.56,4.26,4.26,0,0,0,2.47.58,3.65,3.65,0,0,1,2.41.7,1.23,1.23,0,0,1,.37.56,1.12,1.12,0,0,1-.08.72,1.37,1.37,0,0,1-.72.7,2.69,2.69,0,0,1-1.54,0,10.51,10.51,0,0,1-2.49-.81,4.67,4.67,0,0,1-2.69-3.51,3.68,3.68,0,0,1,.85-2.6,9.17,9.17,0,0,1,2-1.73l.42-.27a1.47,1.47,0,0,1,1.49,0,5.21,5.21,0,0,1,1.22,1,16.65,16.65,0,0,0,1.46,1.45,7.29,7.29,0,0,0,2.67,1.22,6.72,6.72,0,0,0,3,.36,3,3,0,0,0,.72-.24,2.76,2.76,0,0,0,1.73-3.15,3.5,3.5,0,0,0-1.73-2.12,10,10,0,0,0-3.2-1.34,3.88,3.88,0,0,0-2.67.1c-.21.11-.55.32-.55.59,0,.52,1,.82,1.43,1a10.77,10.77,0,0,0,2.16.51,10.87,10.87,0,0,1,1.14.2,2.17,2.17,0,0,1,1,.56,1.11,1.11,0,0,1,.32.59,1.08,1.08,0,0,1-.1.61c-.66,1.45-2.73.78-3.82.31l-.08,0c-.78-.35-3.18-1.41-3.41-3.71a4.11,4.11,0,0,1,1.52-3.48A4.87,4.87,0,0,1,119,17.2a9.29,9.29,0,0,1,2-.3,2.94,2.94,0,0,0,1.59-.53.94.94,0,0,0,.38-.52.72.72,0,0,0-.62-.79,2.17,2.17,0,0,0-1.2.19c-.76.25-1.55.33-2.33.51a8.83,8.83,0,0,0-2.11.8,6.11,6.11,0,0,0-1,.7,3.85,3.85,0,0,0-1.09,1.47,3.07,3.07,0,0,0-.23.89,6.52,6.52,0,0,1-.09,1c-.25,1-1.18,1.33-2,1.7a7.85,7.85,0,0,0-2.52,1.83,5.35,5.35,0,0,0-1.48,3,3.85,3.85,0,0,0,.13,1.51,1.94,1.94,0,0,1,.15.62c0,.86-1.26,1.29-1.89,1.63A5.47,5.47,0,0,0,103.89,37c.11.54.2.62.28,1.19a6.64,6.64,0,0,1-.16,2.52c-.52,2.31-1,4.75-1.1,5.6a29.34,29.34,0,0,1-2.22,6.27,1.48,1.48,0,0,1-.91.25,13.29,13.29,0,0,1-4.86-1.16,1.43,1.43,0,0,1-.71-.5,1.36,1.36,0,0,1-.24-.79c0-1.56,1.8-4.81,1.87-9.47.1-6.37-.37-8.08-.23-12.56A32.8,32.8,0,0,1,96.34,21,23.74,23.74,0,0,1,102,10.2a20.66,20.66,0,0,1,11.74-6.76,20,20,0,0,1,10.15,1,21.07,21.07,0,0,1,10.94,8.19,20.73,20.73,0,0,1,3.33,12.26A22.73,22.73,0,0,1,133.25,38Z"/>
        <path class="cls-3" d="M107.52,68l-22.84-4.7a2.56,2.56,0,0,1-2-3h0a2.55,2.55,0,0,1,3-2L108.54,63a2.55,2.55,0,0,1,2,3h0A2.55,2.55,0,0,1,107.52,68Z"/>
        <path class="cls-3" d="M103.78,75.09,80.94,70.38a2.55,2.55,0,0,1-2-3h0a2.55,2.55,0,0,1,3-2l22.84,4.71a2.55,2.55,0,0,1,2,3h0A2.55,2.55,0,0,1,103.78,75.09Z"/>
        <path class="cls-3" d="M94.54,81.15h0A4.57,4.57,0,0,1,91,75.76h0a.8.8,0,0,1,.94-.61l7.38,1.52a.79.79,0,0,1,.62.93h0A4.57,4.57,0,0,1,94.54,81.15Z"/>
      </g>
      <path class="cls-3" d="M8.8,47.22a8,8,0,0,1,5.72,2.56,8.13,8.13,0,0,1,2.36,5.85v3.42H10.16V55.63A1.69,1.69,0,0,0,8.5,53.94a1.71,1.71,0,0,0-1.08.38.43.43,0,0,0-.11.12l-.12.11-.09.14v0a.18.18,0,0,0-.07.09l0,0c0,.05,0,.1,0,.14s0,0,0,.07l0,.07a.33.33,0,0,1,0,.1c0,.06,0,.09,0,.07v.12s0,.06,0,0v13.7a1.64,1.64,0,0,0,.5,1.2,1.59,1.59,0,0,0,1.19.49h1.66V68.16H8.57V61.44h8.31V77.17l-8.08.38H8.45A8.4,8.4,0,0,1,.09,69.17V55.58a8.21,8.21,0,0,1,2.46-5.9,8.16,8.16,0,0,1,5.9-2.46Z"/>
      <path class="cls-3" d="M24.7,54.65V60h6.72v6.72H24.7v3.38h8.06v6.72H18V47.93H32.76v6.72Z"/>
      <path class="cls-3" d="M50.6,48V76.8H43.9V69.66l-3.37-7.87v15h-6.7V48h6.7v.16L43.9,56V48Z"/>
      <path class="cls-3" d="M58.27,76.85H51.55V47.93h6.72Z"/>
      <path class="cls-3" d="M76.42,48V69.14a8.39,8.39,0,0,1-16.77,0V48h6.72V69.14A1.69,1.69,0,0,0,68,70.81a1.64,1.64,0,0,0,1.2-.5,1.56,1.56,0,0,0,.49-1.17V48Z"/>
      <path class="cls-6" d="M86.41,47.25a8.35,8.35,0,0,1,8.08,8.38v3.44h-6.7V55.63a1.69,1.69,0,0,0-2.74-1.29.43.43,0,0,0-.11.12h0l-.09.12h0a.49.49,0,0,0-.07.11v0h0l-.07.11s0,0,0,0l-.07.11,0,.07,0,.1,0,.09,0,.07a.84.84,0,0,1,0,.1v3a1.63,1.63,0,0,0,.49,1.2,1.65,1.65,0,0,0,1.17.46l.3,0a8.38,8.38,0,0,1-.3,16.76H77.73V70.1h8.38a1.68,1.68,0,0,0,0-3.35h-.33a8.39,8.39,0,0,1-8-8.36V55.61a8.38,8.38,0,0,1,8.35-8.36Z"/>
      <path class="cls-3" d="M86.41,47.25a8.35,8.35,0,0,1,8.08,8.38v3.44h-6.7V55.63a1.69,1.69,0,0,0-2.74-1.29.43.43,0,0,0-.11.12h0l-.09.12h0a.49.49,0,0,0-.07.11v0h0l-.07.11s0,0,0,0l-.07.11,0,.07,0,.1,0,.09,0,.07a.84.84,0,0,1,0,.1v3a1.63,1.63,0,0,0,.49,1.2,1.65,1.65,0,0,0,1.17.46l.3,0a8.38,8.38,0,0,1-.3,16.76H77.73V70.1h8.38a1.68,1.68,0,0,0,0-3.35h-.33a8.39,8.39,0,0,1-8-8.36V55.61a8.38,8.38,0,0,1,8.35-8.36Z"/>
    </g>
  </g>
</svg>