<?xml version="1.0" standalone="no"?>
<!DOCTYPE svg PUBLIC "-//W3C//DTD SVG 20010904//EN"
 "http://www.w3.org/TR/2001/REC-SVG-20010904/DTD/svg10.dtd">
<svg version="1.0" xmlns="http://www.w3.org/2000/svg"
 width="1001.000000pt" height="1001.000000pt" viewBox="0 0 1001.000000 1001.000000"
 preserveAspectRatio="xMidYMid meet">
<metadata>
Created by potrace 1.14, written by Peter Selinger 2001-2017
</metadata>
<g transform="translate(0.000000,1001.000000) scale(0.100000,-0.100000)"
fill="#000000" stroke="none">
<path d="M1747 10004 c-1 -1 -42 -5 -92 -8 -462 -35 -938 -292 -1244 -671
-179 -222 -318 -512 -366 -766 -3 -13 -7 -35 -10 -49 -11 -56 -15 -88 -22
-160 -9 -98 -9 -6615 0 -6700 56 -531 330 -1002 761 -1311 198 -142 488 -266
706 -303 19 -3 46 -8 60 -11 14 -3 57 -9 95 -13 92 -9 6660 -9 6745 1 163 18
291 48 440 104 105 39 330 152 330 165 0 4 5 8 10 8 31 0 206 143 332 271 240
244 411 566 477 894 11 55 23 116 27 135 9 47 13 6720 3 6779 -4 25 -12 80
-19 121 -34 220 -124 457 -250 656 -179 286 -437 519 -738 668 -152 76 -343
140 -482 161 -25 4 -54 9 -65 11 -11 3 -42 7 -70 11 -39 5 -6622 12 -6628 7z"/>
</g>
</svg>
